<svg id="Calque_1" data-name="Calque 1" xmlns="http://www.w3.org/2000/svg" viewBox="0 0 719.49 420"><defs><style>.cls-1{fill:#009fe3;}.cls-2{fill:#ffed00;}.cls-3{fill:#009640;}.cls-4{fill:#312783;}.cls-5{fill:#323230;}.cls-6{fill:#e30613;}.cls-7{fill:#e6007e;}.cls-16,.cls-8,.cls-9{fill:none;}.cls-16,.cls-8{stroke:#000;stroke-miterlimit:10;}.cls-8{stroke-width:4px;}.cls-10,.cls-11,.cls-12,.cls-13,.cls-14{isolation:isolate;font-family:Consolas;}.cls-10,.cls-11,.cls-13{font-size:29.56px;}.cls-11,.cls-12{fill:#fff;}.cls-12{font-size:27px;}.cls-13{fill:#010202;}.cls-14{font-size:30px;}.cls-15{letter-spacing:-3px;}.cls-16{stroke-width:3px;}</style></defs><title>Cercles-bin</title><g id="_Groupe_" data-name="&lt;Groupe&gt;"><path class="cls-1" d="M284.69,142.55a91.45,91.45,0,1,1-90,155.6,91.17,91.17,0,0,0,31.8-69.3,95.37,95.37,0,0,0-1.6-17.1A91.7,91.7,0,0,0,284.69,142.55Z"/><path class="cls-2" d="M286.29,125.45a95.37,95.37,0,0,1-1.6,17.1,91.77,91.77,0,0,0-89.9,17,91.77,91.77,0,0,0-89.9-17,87.75,87.75,0,0,1-1.6-17.1A91.5,91.5,0,0,1,286.29,125.45Z"/><path class="cls-3" d="M284.69,142.55a91.58,91.58,0,0,1-59.7,69.2,91.85,91.85,0,0,0-30.2-52.2,91.12,91.12,0,0,1,59.7-22.1A92,92,0,0,1,284.69,142.55Z"/><path class="cls-4" d="M224.89,211.75a87.75,87.75,0,0,1,1.6,17.1,91.17,91.17,0,0,1-31.8,69.3,91.17,91.17,0,0,1-31.8-69.3,95.37,95.37,0,0,1,1.6-17.1A92,92,0,0,0,224.89,211.75Z"/><path class="cls-5" d="M194.69,159.55a91,91,0,0,1,30.2,52.2,92,92,0,0,1-60.4,0A91.3,91.3,0,0,1,194.69,159.55Z"/><path class="cls-6" d="M194.69,159.55a91,91,0,0,0-30.2,52.2,91.4,91.4,0,0,1-59.7-69.2A91.77,91.77,0,0,1,194.69,159.55Z"/><path class="cls-7" d="M162.89,228.85a91.17,91.17,0,0,0,31.8,69.3,91.49,91.49,0,1,1-90-155.6,91.58,91.58,0,0,0,59.7,69.2A97.09,97.09,0,0,0,162.89,228.85Z"/><path class="cls-8" d="M104.69,142.55a87.75,87.75,0,0,1-1.6-17.1,91.6,91.6,0,0,1,183.2,0,95.37,95.37,0,0,1-1.6,17.1A91.66,91.66,0,0,1,104.69,142.55Z"/><path class="cls-8" d="M224.89,211.75a87.75,87.75,0,0,1,1.6,17.1A91,91,0,1,1,224.89,211.75Z"/><path class="cls-8" d="M284.69,142.55a91.46,91.46,0,1,1-121.8,86.3,95.37,95.37,0,0,1,1.6-17.1A91.71,91.71,0,0,1,284.69,142.55Z"/></g><rect class="cls-9" x="174.89" y="92.35" width="39.5" height="27.3"/><text class="cls-10" transform="translate(186.55 112.71)">0</text><rect class="cls-9" x="103.59" y="228.85" width="44.4" height="32.6"/><text class="cls-10" transform="translate(103.61 249.28)">1</text><rect class="cls-9" x="246.29" y="228.85" width="50.6" height="36.7"/><text class="cls-10" transform="translate(263.44 249.28)">0</text><rect class="cls-9" x="217.79" y="154.25" width="39.5" height="27.3"/><text class="cls-10" transform="translate(229.44 174.61)">1</text><rect class="cls-9" x="128.29" y="154.25" width="39.5" height="27.3"/><text class="cls-10" transform="translate(139.88 174.61)">0</text><rect class="cls-9" x="174.89" y="228.85" width="39.5" height="39.5"/><text class="cls-10" transform="translate(186.55 249.28)">0</text><rect class="cls-9" x="174.89" y="183.65" width="39.5" height="27.3"/><text class="cls-11" transform="translate(186.55 204.08)">1</text><g id="_Groupe_2" data-name="&lt;Groupe&gt;"><path class="cls-1" d="M615.59,141a91.45,91.45,0,1,1-90,155.6,91.17,91.17,0,0,0,31.8-69.3,95.37,95.37,0,0,0-1.6-17.1A91.52,91.52,0,0,0,615.59,141Z"/><path class="cls-2" d="M617.19,123.95a95.37,95.37,0,0,1-1.6,17.1,91.77,91.77,0,0,0-89.9,17,91.77,91.77,0,0,0-89.9-17,87.75,87.75,0,0,1-1.6-17.1A91.5,91.5,0,0,1,617.19,123.95Z"/><path class="cls-3" d="M615.59,141a91.58,91.58,0,0,1-59.7,69.2,91.53,91.53,0,0,0-30.2-52.2,91.12,91.12,0,0,1,59.7-22.1A92,92,0,0,1,615.59,141Z"/><path class="cls-4" d="M555.79,210.25a87.75,87.75,0,0,1,1.6,17.1,91.17,91.17,0,0,1-31.8,69.3,91.17,91.17,0,0,1-31.8-69.3,95.37,95.37,0,0,1,1.6-17.1A92,92,0,0,0,555.79,210.25Z"/><path class="cls-5" d="M525.59,158a91,91,0,0,1,30.2,52.2,92,92,0,0,1-60.4,0A91.3,91.3,0,0,1,525.59,158Z"/><path class="cls-6" d="M525.59,158a91,91,0,0,0-30.2,52.2,91.4,91.4,0,0,1-59.7-69.2A91.77,91.77,0,0,1,525.59,158Z"/><path class="cls-7" d="M493.79,227.35a91.17,91.17,0,0,0,31.8,69.3,91.49,91.49,0,1,1-90-155.6,91.58,91.58,0,0,0,59.7,69.2A97.09,97.09,0,0,0,493.79,227.35Z"/><path class="cls-8" d="M435.59,141a87.75,87.75,0,0,1-1.6-17.1,91.6,91.6,0,0,1,183.2,0,95.37,95.37,0,0,1-1.6,17.1A91.66,91.66,0,0,1,435.59,141Z"/><path class="cls-8" d="M555.79,210.25a87.75,87.75,0,0,1,1.6,17.1A91,91,0,1,1,555.79,210.25Z"/><path class="cls-8" d="M615.59,141a91.46,91.46,0,1,1-121.8,86.3,95.37,95.37,0,0,1,1.6-17.1A91.71,91.71,0,0,1,615.59,141Z"/></g><rect class="cls-9" x="495.29" y="88.05" width="60.7" height="35.9"/><text class="cls-10" transform="translate(517.47 108.41)">0</text><rect class="cls-9" x="449.09" y="154.25" width="60.5" height="41"/><text class="cls-10" transform="translate(471.25 174.61)">0</text><rect class="cls-9" x="542.19" y="153.15" width="66.4" height="41"/><text class="cls-10" transform="translate(567.27 173.5)">0</text><rect class="cls-9" x="499.99" y="183.65" width="51.3" height="34.6"/><text class="cls-12" transform="translate(518.18 202.31)">0</text><rect class="cls-9" x="405.99" y="226.75" width="56.1" height="43.8"/><text class="cls-10" transform="translate(425.9 247.11)">1</text><rect class="cls-9" x="495.29" y="227.25" width="60.7" height="25.8"/><text class="cls-13" transform="translate(517.47 247.67)">1</text><rect class="cls-9" x="586.89" y="225.45" width="60.6" height="39.5"/><text class="cls-10" transform="translate(609.05 245.85)">1</text><rect class="cls-9" x="50.99" y="401.75" width="613.9" height="36.5"/><rect class="cls-9" x="-8.21" y="327.55" width="727.7" height="56.3"/><text class="cls-14" transform="translate(155.03 381.75)"><tspan class="cls-15">0 0 0 0 1 1 1 0 0 1 1 0 1 0 0 </tspan><tspan x="404.82" y="0">1</tspan></text><rect class="cls-16" x="139.88" y="353.66" width="453.54" height="39.69"/></svg>