<svg id="Calque_1" data-name="Calque 1" xmlns="http://www.w3.org/2000/svg" viewBox="0 0 719.49 420"><defs><style>.cls-1{fill:#009fe3;}.cls-2{fill:#ffed00;}.cls-3{fill:#009640;}.cls-4{fill:#312783;}.cls-5{fill:#323230;}.cls-6{fill:#e30613;}.cls-7{fill:#e6007e;}.cls-18,.cls-8,.cls-9{fill:none;}.cls-18,.cls-8{stroke:#000;stroke-miterlimit:10;}.cls-8{stroke-width:4px;}.cls-10,.cls-11,.cls-12,.cls-13,.cls-14,.cls-15,.cls-16,.cls-17,.cls-19,.cls-20{isolation:isolate;}.cls-10,.cls-12,.cls-16{font-size:29.56px;}.cls-10,.cls-11,.cls-12,.cls-13,.cls-14,.cls-15,.cls-16,.cls-17{font-family:Consolas;}.cls-11,.cls-13,.cls-17{font-size:17.23px;}.cls-12,.cls-13,.cls-14,.cls-15{fill:#fff;}.cls-14{font-size:27px;}.cls-15{font-size:15.74px;}.cls-16,.cls-17{fill:#010202;}.cls-18{stroke-width:3px;}.cls-19{font-size:30px;}.cls-19,.cls-20{font-family:Arial;}.cls-20{font-size:17.49px;}.cls-21{letter-spacing:-1px;}</style></defs><title>Cercles-DP</title><g id="_Groupe_" data-name="&lt;Groupe&gt;"><path class="cls-1" d="M280.23,134.85a91.45,91.45,0,1,1-90,155.6,91.17,91.17,0,0,0,31.8-69.3,95.37,95.37,0,0,0-1.6-17.1A91.86,91.86,0,0,0,280.23,134.85Z"/><path class="cls-2" d="M281.83,117.65a95.37,95.37,0,0,1-1.6,17.1,91.77,91.77,0,0,0-89.9,17,91.77,91.77,0,0,0-89.9-17,87.75,87.75,0,0,1-1.6-17.1A91.5,91.5,0,0,1,281.83,117.65Z"/><path class="cls-3" d="M280.23,134.85a91.58,91.58,0,0,1-59.7,69.2,91.53,91.53,0,0,0-30.2-52.2,91.12,91.12,0,0,1,59.7-22.1A92,92,0,0,1,280.23,134.85Z"/><path class="cls-4" d="M220.43,204a87.75,87.75,0,0,1,1.6,17.1,91.17,91.17,0,0,1-31.8,69.3,91.17,91.17,0,0,1-31.8-69.3A95.37,95.37,0,0,1,160,204,92,92,0,0,0,220.43,204Z"/><path class="cls-5" d="M190.23,151.85a91,91,0,0,1,30.2,52.2,92,92,0,0,1-60.4,0A91,91,0,0,1,190.23,151.85Z"/><path class="cls-6" d="M190.23,151.85A91,91,0,0,0,160,204a91.4,91.4,0,0,1-59.7-69.2A91.77,91.77,0,0,1,190.23,151.85Z"/><path class="cls-7" d="M158.33,221.15a91.17,91.17,0,0,0,31.8,69.3,91.49,91.49,0,1,1-90-155.6,91.58,91.58,0,0,0,59.7,69.2A106.59,106.59,0,0,0,158.33,221.15Z"/><path class="cls-8" d="M100.23,134.85a87.75,87.75,0,0,1-1.6-17.1,91.6,91.6,0,0,1,183.2,0,95.37,95.37,0,0,1-1.6,17.1A91.66,91.66,0,0,1,100.23,134.85Z"/><path class="cls-8" d="M220.43,204a87.75,87.75,0,0,1,1.6,17.1A91,91,0,1,1,220.43,204Z"/><path class="cls-8" d="M280.23,134.85a91.46,91.46,0,1,1-121.8,86.3A95.37,95.37,0,0,1,160,204,91.71,91.71,0,0,1,280.23,134.85Z"/></g><rect class="cls-9" x="173.83" y="81.75" width="39.5" height="27.3"/><text class="cls-10" transform="translate(173.88 102.18)">P</text><text class="cls-11" transform="translate(190.14 112.02)">1</text><rect class="cls-9" x="99.13" y="221.15" width="44.4" height="32.6"/><text class="cls-10" transform="translate(99.15 241.55)">P</text><text class="cls-11" transform="translate(115.41 251.4)">2</text><rect class="cls-9" x="241.83" y="221.15" width="50.6" height="36.7"/><text class="cls-10" transform="translate(241.8 241.55)">P</text><text class="cls-11" transform="translate(258.05 251.4)">3</text><rect class="cls-9" x="222.03" y="147.75" width="39.5" height="27.3"/><text class="cls-10" transform="translate(222.06 168.15)">D</text><text class="cls-11" transform="translate(238.31 177.99)">3</text><rect class="cls-9" x="121.33" y="146.45" width="39.5" height="27.3"/><text class="cls-10" transform="translate(121.35 166.88)">D</text><text class="cls-11" transform="translate(137.6 176.72)">1</text><rect class="cls-9" x="170.43" y="221.15" width="39.5" height="39.5"/><text class="cls-10" transform="translate(177.36 241.55)">D</text><text class="cls-11" transform="translate(193.61 251.4)">4</text><rect class="cls-9" x="173.83" y="175.05" width="39.5" height="27.3"/><text class="cls-12" transform="translate(173.88 195.45)">D</text><text class="cls-13" transform="translate(190.14 205.3)">2</text><g id="_Groupe_2" data-name="&lt;Groupe&gt;"><path class="cls-1" d="M611.13,133.35a91.45,91.45,0,1,1-90,155.6,91.17,91.17,0,0,0,31.8-69.3,95.37,95.37,0,0,0-1.6-17.1A91.68,91.68,0,0,0,611.13,133.35Z"/><path class="cls-2" d="M612.73,116.15a95.37,95.37,0,0,1-1.6,17.1,91.77,91.77,0,0,0-89.9,17,91.77,91.77,0,0,0-89.9-17,87.75,87.75,0,0,1-1.6-17.1A91.5,91.5,0,0,1,612.73,116.15Z"/><path class="cls-3" d="M611.13,133.35a91.58,91.58,0,0,1-59.7,69.2,91.53,91.53,0,0,0-30.2-52.2,91.12,91.12,0,0,1,59.7-22.1A92,92,0,0,1,611.13,133.35Z"/><path class="cls-4" d="M551.33,202.55a87.75,87.75,0,0,1,1.6,17.1,91.17,91.17,0,0,1-31.8,69.3,91.17,91.17,0,0,1-31.8-69.3,95.37,95.37,0,0,1,1.6-17.1A92,92,0,0,0,551.33,202.55Z"/><path class="cls-5" d="M521.13,150.35a91,91,0,0,1,30.2,52.2,92,92,0,0,1-60.4,0A91,91,0,0,1,521.13,150.35Z"/><path class="cls-6" d="M521.13,150.35a91,91,0,0,0-30.2,52.2,91.4,91.4,0,0,1-59.7-69.2A91.77,91.77,0,0,1,521.13,150.35Z"/><path class="cls-7" d="M489.33,219.65a91.17,91.17,0,0,0,31.8,69.3,91.49,91.49,0,1,1-90-155.6,91.58,91.58,0,0,0,59.7,69.2A96.24,96.24,0,0,0,489.33,219.65Z"/><path class="cls-8" d="M431.13,133.35a87.75,87.75,0,0,1-1.6-17.1,91.6,91.6,0,0,1,183.2,0,95.37,95.37,0,0,1-1.6,17.1A91.66,91.66,0,0,1,431.13,133.35Z"/><path class="cls-8" d="M551.33,202.55a87.75,87.75,0,0,1,1.6,17.1A91,91,0,1,1,551.33,202.55Z"/><path class="cls-8" d="M611.13,133.35a91.46,91.46,0,1,1-121.8,86.3,95.37,95.37,0,0,1,1.6-17.1A91.71,91.71,0,0,1,611.13,133.35Z"/></g><rect class="cls-9" x="496.73" y="80.25" width="60.7" height="35.9"/><text class="cls-10" transform="translate(496.7 100.68)">P’</text><text class="cls-11" transform="translate(529.21 110.52)">1</text><rect class="cls-9" x="447.73" y="144.95" width="60.5" height="41"/><text class="cls-10" transform="translate(447.75 165.38)">D’</text><text class="cls-11" transform="translate(480.25 175.22)">1</text><rect class="cls-9" x="547.73" y="142.35" width="66.4" height="41"/><text class="cls-10" transform="translate(547.69 162.73)">D’</text><text class="cls-11" transform="translate(580.19 172.57)">3</text><rect class="cls-9" x="502.73" y="174.65" width="51.3" height="34.6"/><text class="cls-14" transform="translate(502.74 193.32)">D’</text><text class="cls-15" transform="translate(532.43 202.31)">2</text><rect class="cls-9" x="411.13" y="217.45" width="56.1" height="43.8"/><text class="cls-10" transform="translate(411.15 237.88)">P’</text><text class="cls-11" transform="translate(443.65 247.73)">2</text><rect class="cls-9" x="490.83" y="221.05" width="60.7" height="25.8"/><text class="cls-16" transform="translate(500.16 241.48)">D’</text><text class="cls-17" transform="translate(532.66 251.33)">4</text><rect class="cls-9" x="570.93" y="217.05" width="60.6" height="39.5"/><text class="cls-10" transform="translate(570.94 237.4)">P’</text><text class="cls-11" transform="translate(603.45 247.25)">3</text><rect class="cls-18" x="105.48" y="355.7" width="510.24" height="39.69"/><text class="cls-19" transform="translate(120.23 381.75)">P</text><text class="cls-20" transform="translate(136.19 391.74)">1</text><text class="cls-19" transform="translate(145.16 381.75)">P<tspan class="cls-21" x="20.01" y="0">’</tspan></text><text class="cls-20" transform="translate(167.33 391.74)">1</text><text class="cls-19" transform="translate(176.3 381.75)">D</text><text class="cls-20" transform="translate(196.28 391.74)">1</text><text class="cls-19" transform="translate(205.26 381.75)">D<tspan class="cls-21" x="21.67" y="0">’</tspan></text><text class="cls-20" transform="translate(231.44 391.74)">1</text><text class="cls-19" transform="translate(240.42 381.75)">P</text><text class="cls-20" transform="translate(256.38 391.74)">2</text><text class="cls-19" transform="translate(265.35 381.75)">P<tspan class="cls-21" x="20.01" y="0">’</tspan></text><text class="cls-20" transform="translate(287.52 391.74)">2</text><text class="cls-19" transform="translate(296.49 381.75)">D</text><text class="cls-20" transform="translate(316.47 391.74)">2</text><text class="cls-19" transform="translate(325.44 381.75)">D<tspan class="cls-21" x="21.67" y="0">’</tspan></text><text class="cls-20" transform="translate(351.63 391.74)">2</text><text class="cls-19" transform="translate(360.6 381.75)">P</text><text class="cls-20" transform="translate(376.56 391.74)">3</text><text class="cls-19" transform="translate(385.53 381.75)">P<tspan class="cls-21" x="20.01" y="0">’</tspan></text><text class="cls-20" transform="translate(407.7 391.74)">3</text><text class="cls-19" transform="translate(416.68 381.75)">D</text><text class="cls-20" transform="translate(436.66 391.74)">3</text><text class="cls-19" transform="translate(445.63 381.75)">D<tspan class="cls-21" x="21.67" y="0">’</tspan></text><text class="cls-20" transform="translate(471.82 391.74)">3</text><text class="cls-19" transform="translate(480.79 381.75)">P</text><text class="cls-20" transform="translate(496.75 391.74)">4</text><text class="cls-19" transform="translate(505.72 381.75)">P<tspan class="cls-21" x="20.01" y="0">’</tspan></text><text class="cls-20" transform="translate(527.89 391.74)">4</text><text class="cls-19" transform="translate(536.86 381.75)">D</text><text class="cls-20" transform="translate(556.84 391.74)">4</text><text class="cls-19" transform="translate(565.81 381.75)">D<tspan class="cls-21" x="21.67" y="0">’</tspan></text><text class="cls-20" transform="translate(592 391.74)">4</text></svg>