<?xml version="1.0" encoding="utf-8"?>
<!-- Generator: Adobe Illustrator 17.0.0, SVG Export Plug-In . SVG Version: 6.00 Build 0)  -->
<!DOCTYPE svg PUBLIC "-//W3C//DTD SVG 1.1//EN" "http://www.w3.org/Graphics/SVG/1.1/DTD/svg11.dtd">
<svg version="1.1" id="Calque_1" xmlns="http://www.w3.org/2000/svg" xmlns:xlink="http://www.w3.org/1999/xlink" x="0px" y="0px"
	 width="1920px" height="360px" viewBox="0 0 1920 360" enable-background="new 0 0 1920 360" xml:space="preserve">
<g>
	<line fill="none" x1="373.9" y1="208" x2="547.9" y2="208"/>
	<g>
		<line fill="none" stroke="#010202" stroke-width="6" stroke-miterlimit="10" x1="373.9" y1="208" x2="450.9" y2="208"/>
		<g>
			<g>
				<path fill="#010202" d="M448.2,232.4c3.1-0.1,7.6-0.2,14.2,0.1c3.1,0.1,3.8-1.1,4.8-6.5c0.4-2.3,2.2-1.1,4.8-1.8
					c2.3-0.9,2.7-6.4,2.7-6.4c0-1.2,0.7-1.3,1.1-1.1c9,3.8,18.5-2,18.7-1c1.7,4.5,6.2,4.2,6.8,3c-0.1,2,3,3.7,4,3.3
					c3.5-1.8,3.5-3.2,5.9-4c4.4-1.9,3.5-4,7.7-4.2c3.1-0.2,4.1-0.7,4.8-1.3c3.2-3.1,0.4-7.3-1.5-8.7c0.7-3.3-4-7.2-5.1-9.9
					c1.4,0,3.7-0.4,7-1.5c1.8-0.6,1.4,0.3,4.5,0c4.2-0.4,5.8-0.8,7.1-1.4c0.8-0.4,4.8-0.3,6.9-1c6.7-1,5.6-7,5.5-7.6
					c-0.1-0.2-0.1-0.2-1.4-0.2c-1.7,0.1-4.7-0.8-7.2-0.4c-1,0.1-2.5-0.3-4.8,0c-2.9-0.5-5.1,0.3-8.5-0.9c-0.5-0.2-0.4,0.3-1.5,0.2
					c-0.6-0.1-0.5-0.5-2.3-0.3c-2,0.2-4.6,0-7.1,0s-4.4-0.5-10.4-1c-2.5-0.2-4.4-1.3-6.2-0.4c-2.7,1.4-12.3,5.5-22.5,10.6
					c-0.2,0.1-1.1,0.6-1.7-0.7c-1.1-2.1-1.8-1.5-5.8-1.4c-2.9-0.1-0.7-2.3-3.9-2.3c-4.9,0.1-6.9,0.5-14,0.4
					c-2.9-0.1-3.8-0.2-3.8,1.9v43.4C446.9,231.7,447.3,232.4,448.2,232.4z"/>
				<path fill="#FFFFFF" d="M546.7,183.5c0.2,1.9-3.4,1.4-4.8,1.2c-0.8-0.2-1.5-1.5-0.6-1.8l5.2,0.5
					C546.6,183.4,546.7,183.5,546.7,183.5z"/>
				<path fill="#FFFFFF" d="M518.5,205.9c-2.1,0.3-1.9,1.2-3,1c-1.5-0.2-0.2-0.8-5.1-0.6c-1.4,0-2.2-0.1-3.2,0.5
					c-0.5-0.4-1.6-0.9-2.4-0.2c-1.8-0.4-1.2-0.6-4.2,0.1c-4.1,0.9-4.9-0.7-6.8-1.7c-0.5-0.2-0.8-0.4-1.8-0.3
					c-7.6,0.9-4.3,0.9-14.8,0.3c-3.6-0.7-5.1-2.7-4.9-7.6c0.3-5.6,1.5-4.8,4.6-6.1c12.5-5.5,20.8-10.3,24.1-10.1
					c9.2,0.1,7.5,1.8,19.7,1.4c3.9-0.5,3.7,1.5,5.2,1.3c1.1-0.6,0.2-1.2,3.9-0.8c7.6,0.7,9.1-0.6,9.8,0.6c0.9,1.6,0.9,2.6,5.8,2.2
					c0.4,0,0.5,0,0.8-0.1c0.6-0.1,0.6,0.2,0,0.7c-0.5,0.4-4.5,2.3-9.2,1.6c-2.7-0.4-1.3,0.6-5.7,0.6c-1.9-0.1-3.1-0.1-3.7-0.3
					c-1.9,0.7-5.7,0.8-6.9,0.5c-1.5-0.4-2.2-0.8-3.5-0.1s-4.2,1.7-8.6,1.2c-5.1-0.6-4.8-1.6-5.3-1.2c-1.2,0.9,1.2,2.5-1.3,4.5
					c-1.3,1-2.7-2.9-3.9-2.9c-0.8,0.1-0.9,0.8-0.5,1.6c0.2,0.4,1.7,2.6,0.4,3.6c-2.1,1.5-5.7-3-8.6-1.1c-0.7,0.5,0,1.2,0.8,1.1
					c1.4-0.2,3.7,1.2,4.6,2c1.3,1.1,4.9,2.9,6.2,3.4c4.7,1.9,6.3,0.5,7.1,1.7c0.7,0.9,2.2-0.5,3.9-0.7c3.2-0.5,10.4,2.1,9.7,3.7
					c-0.3,0.5-0.8,0.5-1.4,0.4C519.6,205.8,519.4,205.7,518.5,205.9z"/>
				<path fill="#FFFFFF" d="M516.7,209.8c0.7-1.6,0.8-1.8,2.3-2.1c1.3-0.3,5.2,0.8,4.7,2.5c-0.4,0.5-2,0.5-3,0.8
					C519.6,211.2,516.2,211.6,516.7,209.8z"/>
				<path fill="#FFFFFF" d="M469.3,222.5c1.5-0.1,1.7-1,2-2c0.3-1.4-0.7-7.5-0.8-15.1c-0.1-7.6,0.1-9.8,0.5-13.9
					c0.1-1,0.9-2.3-0.5-2.3c-4.5-0.3-5.9-0.6-6.6,2.9c-0.8,4.2-1,20.3,0.1,28.8C464.3,221.7,463.4,223,469.3,222.5z"/>
			</g>
		</g>
	</g>
</g>
<path fill="#273339" d="M1305.9,289.1h-226.3c-6.6,0-12-5.4-12-12V118.3c0-6.6,5.4-12,12-12h226.3c6.6,0,12,5.4,12,12v158.9
	C1317.9,283.7,1312.5,289.1,1305.9,289.1z"/>
<g>
	<line fill="none" x1="872.1" y1="204.9" x2="1043.1" y2="204.9"/>
	<g>
		<line fill="none" stroke="#010202" stroke-width="6" stroke-miterlimit="10" x1="881.7" y1="209.9" x2="954.7" y2="209.9"/>
		<g>
			<g>
				<path fill="#010202" d="M952.8,234.3c3.1-0.1,7.5-0.2,14.1,0.1c3.1,0.1,3.8-1.1,4.8-6.5c0.4-2.3,2.2-1.1,4.7-1.8
					c2.3-0.9,2.7-6.4,2.7-6.4c0-1.2,0.7-1.3,1.1-1.1c9,3.8,18.5-2,18.7-1c1.7,4.5,6.2,4.2,6.7,3c-0.1,2,3,3.7,4,3.3
					c3.5-1.8,3.5-3.2,5.9-4c4.4-1.9,3.5-4,7.7-4.2c3.1-0.2,4.1-0.7,4.8-1.3c3.2-3.1,0.4-7.3-1.5-8.7c0.7-3.3-4-7.2-5.1-9.9
					c1.4,0,3.7-0.4,7-1.5c1.8-0.6,1.4,0.3,4.5,0c4.2-0.4,5.8-0.8,7.1-1.4c0.8-0.4,4.8-0.3,6.9-1c6.7-1,5.6-7,5.5-7.6
					c-0.1-0.2-0.1-0.2-1.4-0.2c-1.7,0.1-4.7-0.8-7.2-0.4c-1,0.1-2.5-0.3-4.8,0c-2.9-0.5-5.1,0.3-8.5-0.9c-0.5-0.2-0.4,0.3-1.5,0.2
					c-0.6-0.1-0.5-0.5-2.3-0.3c-2,0.2-4.6,0-7.1,0s-4.4-0.5-10.4-1c-2.5-0.2-4.4-1.3-6.2-0.4c-2.7,1.4-12.3,5.5-22.5,10.6
					c-0.2,0.1-1.1,0.6-1.7-0.7c-1.1-2.1-1.8-1.5-5.8-1.4c-2.9-0.1-0.7-2.3-3.9-2.3c-4.9,0.1-6.7,0.5-13.8,0.4
					c-2.9-0.1-3.6-0.2-3.6,1.9v43.4C951.7,233.6,951.9,234.3,952.8,234.3z"/>
				<path fill="#FFFFFF" d="M1051.1,185.4c0.2,1.9-3.4,1.4-4.8,1.2c-0.8-0.2-1.5-1.5-0.6-1.8l5.2,0.5
					C1051,185.3,1051.1,185.4,1051.1,185.4z"/>
				<path fill="#FFFFFF" d="M1022.9,207.8c-2.1,0.3-1.9,1.2-3,1c-1.5-0.2-0.2-0.8-5.1-0.6c-1.4,0-2.2-0.1-3.2,0.5
					c-0.5-0.4-1.6-0.9-2.4-0.2c-1.8-0.4-1.2-0.6-4.2,0.1c-4.1,0.9-4.9-0.7-6.8-1.7c-0.5-0.2-0.8-0.4-1.8-0.3
					c-7.6,0.9-4.3,0.9-14.8,0.3c-3.6-0.7-5.1-2.7-4.9-7.6c0.3-5.6,1.5-4.8,4.6-6.1c12.5-5.5,20.8-10.3,24.1-10.1
					c9.2,0.1,7.5,1.8,19.7,1.4c3.9-0.5,3.7,1.5,5.2,1.3c1.1-0.6,0.2-1.2,3.9-0.8c7.6,0.7,9.1-0.6,9.8,0.6c0.9,1.6,0.9,2.6,5.8,2.2
					c0.4,0,0.5,0,0.8-0.1c0.6-0.1,0.6,0.2,0,0.7c-0.5,0.4-4.5,2.3-9.2,1.6c-2.7-0.4-1.3,0.6-5.7,0.6c-1.9-0.1-3.1-0.1-3.7-0.3
					c-1.9,0.7-5.7,0.8-6.9,0.5c-1.5-0.4-2.2-0.8-3.5-0.1s-4.2,1.7-8.6,1.2c-5.1-0.6-4.8-1.6-5.3-1.2c-1.2,0.9,1.2,2.5-1.3,4.5
					c-1.3,1-2.7-2.9-3.9-2.9c-0.8,0.1-0.9,0.8-0.5,1.6c0.2,0.4,1.7,2.6,0.4,3.6c-2.1,1.5-5.7-3-8.6-1.1c-0.7,0.5,0,1.2,0.8,1.1
					c1.4-0.2,3.7,1.2,4.6,2c1.3,1.1,4.9,2.9,6.2,3.4c4.7,1.9,6.3,0.5,7.1,1.7c0.7,0.9,2.2-0.5,3.9-0.7c3.2-0.5,10.4,2.1,9.7,3.7
					c-0.3,0.5-0.8,0.5-1.4,0.4C1024,207.7,1023.8,207.6,1022.9,207.8z"/>
				<path fill="#FFFFFF" d="M1021.1,211.7c0.7-1.6,0.8-1.8,2.3-2.1c1.3-0.3,5.2,0.8,4.7,2.5c-0.4,0.5-2,0.5-3,0.8
					C1024,213.1,1020.6,213.5,1021.1,211.7z"/>
				<path fill="#FFFFFF" d="M973.7,224.4c1.5-0.1,1.7-1,2-2c0.3-1.4-0.7-7.5-0.8-15.1s0.1-9.8,0.5-13.9c0.1-1,0.9-2.3-0.5-2.3
					c-4.5-0.3-5.9-0.6-6.6,2.9c-0.8,4.2-1,20.3,0.1,28.8C968.7,223.6,967.8,224.9,973.7,224.4z"/>
			</g>
		</g>
	</g>
</g>
<rect x="1089.2" y="169.9" fill="none" width="207.1" height="49.3"/>
<text transform="matrix(1 0 0 1 1104.7638 197.4565)" fill="#00FF00" font-family="'Consolas'" font-size="40">01100001</text>
<path fill="#273339" d="M839.8,288.9H613.5c-6.6,0-12-5.4-12-12V118.1c0-6.6,5.4-12,12-12h226.3c6.6,0,12,5.4,12,12V277
	C851.8,283.5,846.4,288.9,839.8,288.9z"/>
<path fill="#273339" d="M1810.5,285.9h-226.3c-6.6,0-12-5.4-12-12V115.1c0-6.6,5.4-12,12-12h226.3c6.6,0,12,5.4,12,12V274
	C1822.5,280.5,1817.1,285.9,1810.5,285.9z"/>
<rect x="1577.8" y="176.1" fill="none" width="155.7" height="51.4"/>
<text transform="matrix(1 0 0 1 1687 197.9004)" fill="#00FF00" font-family="'Consolas'" font-size="40">a</text>
<rect x="626" y="137.1" fill="none" width="211.4" height="104.3"/>
<text transform="matrix(1 0 0 1 626.0266 170.4474)" fill="#00FF00" font-family="'Consolas'" font-size="40">000011100</text>
<text transform="matrix(1 0 0 1 654.786 219.1996)" fill="#00FF00" font-family="'Consolas'" font-size="40">1101001</text>
<g>
	<line fill="none" x1="1352" y1="208.7" x2="1521" y2="208.7"/>
	<g>
		<line fill="none" stroke="#010202" stroke-width="6" stroke-miterlimit="10" x1="1352" y1="208.7" x2="1423" y2="208.7"/>
		<g>
			<g>
				<path fill="#010202" d="M1421.1,233.1c3.1-0.1,7.5-0.2,14.1,0.1c3.1,0.1,3.8-1.1,4.8-6.5c0.4-2.3,2.2-1.1,4.7-1.8
					c2.3-0.9,2.7-6.4,2.7-6.4c0-1.2,0.7-1.3,1.1-1.1c9,3.8,18.5-2,18.7-1c1.7,4.5,6.2,4.2,6.7,3c-0.1,2,3,3.7,4,3.3
					c3.5-1.8,3.5-3.2,5.9-4c4.4-1.9,3.5-4,7.7-4.2c3.1-0.2,4.1-0.7,4.8-1.3c3.2-3.1,0.4-7.3-1.5-8.7c0.7-3.3-4-7.2-5.1-9.9
					c1.4,0,3.7-0.4,7-1.5c1.8-0.6,1.4,0.3,4.5,0c4.2-0.4,5.8-0.8,7.1-1.4c0.8-0.4,4.8-0.3,6.9-1c6.7-1,5.6-7,5.5-7.6
					c-0.1-0.2-0.1-0.2-1.4-0.2c-1.7,0.1-4.7-0.8-7.2-0.4c-1,0.1-2.5-0.3-4.8,0c-2.9-0.5-5.1,0.3-8.5-0.9c-0.5-0.2-0.4,0.3-1.5,0.2
					c-0.6-0.1-0.5-0.5-2.3-0.3c-2,0.2-4.6,0-7.1,0s-4.4-0.5-10.4-1c-2.5-0.2-4.4-1.3-6.2-0.4c-2.7,1.4-12.3,5.5-22.5,10.6
					c-0.2,0.1-1.1,0.6-1.7-0.7c-1.1-2.1-1.8-1.5-5.8-1.4c-2.9-0.1-0.7-2.3-3.9-2.3c-4.9,0.1-6.7,0.5-13.8,0.4
					c-2.9-0.1-3.6-0.2-3.6,1.9V232C1420,232.4,1420.2,233.1,1421.1,233.1z"/>
				<path fill="#FFFFFF" d="M1519.4,184.2c0.2,1.9-3.4,1.4-4.8,1.2c-0.8-0.2-1.5-1.5-0.6-1.8l5.2,0.5
					C1519.3,184.1,1519.4,184.2,1519.4,184.2z"/>
				<path fill="#FFFFFF" d="M1491.2,206.6c-2.1,0.3-1.9,1.2-3,1c-1.5-0.2-0.2-0.8-5.1-0.6c-1.4,0-2.2-0.1-3.2,0.5
					c-0.5-0.4-1.6-0.9-2.4-0.2c-1.8-0.4-1.2-0.6-4.2,0.1c-4.1,0.9-4.9-0.7-6.8-1.7c-0.5-0.2-0.8-0.4-1.8-0.3
					c-7.6,0.9-4.3,0.9-14.8,0.3c-3.6-0.7-5.1-2.7-4.9-7.6c0.3-5.6,1.5-4.8,4.6-6.1c12.5-5.5,20.8-10.3,24.1-10.1
					c9.2,0.1,7.5,1.8,19.7,1.4c3.9-0.5,3.7,1.5,5.2,1.3c1.1-0.6,0.2-1.2,3.9-0.8c7.6,0.7,9.1-0.6,9.8,0.6c0.9,1.6,0.9,2.6,5.8,2.2
					c0.4,0,0.5,0,0.8-0.1c0.6-0.1,0.6,0.2,0,0.7c-0.5,0.4-4.5,2.3-9.2,1.6c-2.7-0.4-1.3,0.6-5.7,0.6c-1.9-0.1-3.1-0.1-3.7-0.3
					c-1.9,0.7-5.7,0.8-6.9,0.5c-1.5-0.4-2.2-0.8-3.5-0.1s-4.2,1.7-8.6,1.2c-5.1-0.6-4.8-1.6-5.3-1.2c-1.2,0.9,1.2,2.5-1.3,4.5
					c-1.3,1-2.7-2.9-3.9-2.9c-0.8,0.1-0.9,0.8-0.5,1.6c0.2,0.4,1.7,2.6,0.4,3.6c-2.1,1.5-5.7-3-8.6-1.1c-0.7,0.5,0,1.2,0.8,1.1
					c1.4-0.2,3.7,1.2,4.6,2c1.3,1.1,4.9,2.9,6.2,3.4c4.7,1.9,6.3,0.5,7.1,1.7c0.7,0.9,2.2-0.5,3.9-0.7c3.2-0.5,10.4,2.1,9.7,3.7
					c-0.3,0.5-0.8,0.5-1.4,0.4C1492.3,206.5,1492.1,206.4,1491.2,206.6z"/>
				<path fill="#FFFFFF" d="M1489.4,210.5c0.7-1.6,0.8-1.8,2.3-2.1c1.3-0.3,5.2,0.8,4.7,2.5c-0.4,0.5-2,0.5-3,0.8
					C1492.3,211.9,1488.9,212.3,1489.4,210.5z"/>
				<path fill="#FFFFFF" d="M1442,223.2c1.5-0.1,1.7-1,2-2c0.3-1.4-0.7-7.5-0.8-15.1c-0.1-7.6,0.1-9.8,0.5-13.9
					c0.1-1,0.9-2.3-0.5-2.3c-4.5-0.3-5.9-0.6-6.6,2.9c-0.8,4.2-1,20.3,0.1,28.8C1437,222.4,1436.1,223.7,1442,223.2z"/>
			</g>
		</g>
	</g>
</g>
<path fill="#273339" d="M305.9,289.3H79.6c-6.6,0-12-5.4-12-12V118.5c0-6.6,5.4-12,12-12h226.3c6.6,0,12,5.4,12,12v158.9
	C317.9,283.9,312.5,289.3,305.9,289.3z"/>
<rect x="89.1" y="174.7" fill="none" width="207.1" height="52.9"/>
<text transform="matrix(1 0 0 1 104.7762 202.2497)" fill="#00FF00" font-family="'Consolas'" font-size="40">AACGTGGT</text>
<rect x="382" y="96.4" fill="none" width="155.7" height="55.7"/>
<text transform="matrix(1 0 0 1 388.3398 138.8971)" fill="#010202" font-family="'Consolas'" font-size="20">Conversion en </text>
<text transform="matrix(1 0 0 1 421.3398 162.8971)" fill="#010202" font-family="'Consolas'" font-size="20">binaire</text>
<rect x="848.1" y="109.7" fill="none" width="194.1" height="54.3"/>
<text transform="matrix(1 0 0 1 872.1448 143.297)" fill="#010202" font-family="'Consolas'" font-size="20">Ajout de Système </text>
<text transform="matrix(1 0 0 1 908.6448 165.6851)" fill="#010202" font-family="'Consolas'" font-size="20">Correcteur </text>
<rect x="1352" y="116.1" fill="none" width="225.7" height="54.3"/>
<text transform="matrix(1 0 0 1 1398.5791 138.8971)" fill="#010202" font-family="'Consolas'" font-size="20">Conversion </text>
<text transform="matrix(1 0 0 1 1376.5791 162.8971)" fill="#010202" font-family="'Consolas'" font-size="20">en information </text>
<rect x="1572.2" y="60.1" fill="none" width="250.3" height="35.8"/>
<text transform="matrix(1 0 0 1 1638.2017 76.5862)" fill="#010202" font-family="'FootlightMTLight'" font-size="24">Information </text>
<rect x="1067.6" y="70.9" fill="none" width="250.3" height="35.8"/>
<text transform="matrix(1 0 0 1 1028.158 87.4114)" fill="#010202" font-family="'FootlightMTLight'" font-size="24">Binaire+ Redondance Correctrice</text>
<rect x="543.3" y="65.6" fill="none" width="381.2" height="32.2"/>
<text transform="matrix(1 0 0 1 551.6235 83.5002)" fill="#010202" font-family="'FootlightMTLight'" font-size="24">                       Binaire </text>
<rect x="67.6" y="70.7" fill="none" width="250.3" height="35.8"/>
<text transform="matrix(1 0 0 1 114.7767 87.1866)" fill="#010202" font-family="'FootlightMTLight'" font-size="24">Séquence ADN </text>
</svg>
