<?xml version="1.0" encoding="UTF-8" standalone="no"?><!DOCTYPE svg PUBLIC "-//W3C//DTD SVG 1.1//EN" "http://www.w3.org/Graphics/SVG/1.1/DTD/svg11.dtd"><!-- Generated by graphviz version 2.35.0 (20140103.1005) --><!-- Title: FlowChart Pages: 1 --><svg width="357pt" height="847pt" viewBox="0.00 0.00 357.29 847" xmlns="http://www.w3.org/2000/svg" xmlns:xlink="http://www.w3.org/1999/xlink"><defs><linearGradient id="g-terminatorcs1lfvnvm6xbt9" x1="0%" x2="100%" y1="0%" y2="0%" spreadMethod="pad"><stop offset="0%" stop-color="#ff8787" stop-opacity="1"/><stop offset="100%" stop-color="#ffb9b9" stop-opacity="1"/></linearGradient><linearGradient id="g-decisioncs1lfvnvm6xbt9" x1="0%" x2="100%" y1="0%" y2="0%" spreadMethod="pad"><stop offset="0%" stop-color="#ffd287" stop-opacity="1"/><stop offset="100%" stop-color="#ffffb9" stop-opacity="1"/></linearGradient><linearGradient id="g-processcs1lfvnvm6xbt9" x1="0%" x2="100%" y1="0%" y2="0%" spreadMethod="pad"><stop offset="0%" stop-color="#99ff99" stop-opacity="1"/><stop offset="100%" stop-color="#cbffcb" stop-opacity="1"/></linearGradient><linearGradient id="g-defaultcs1lfvnvm6xbt9" x1="0%" x2="100%" y1="0%" y2="0%" spreadMethod="pad"><stop offset="0%" stop-color="#99ff99" stop-opacity="1"/><stop offset="100%" stop-color="#cbffcb" stop-opacity="1"/></linearGradient><linearGradient id="g-modulecs1lfvnvm6xbt9" x1="0%" x2="100%" y1="0%" y2="0%" spreadMethod="pad"><stop offset="0%" stop-color="#77c1e4" stop-opacity="1"/><stop offset="100%" stop-color="#a9f3ff" stop-opacity="1"/></linearGradient><linearGradient id="g-dataiocs1lfvnvm6xbt9" x1="0%" x2="100%" y1="0%" y2="0%" spreadMethod="pad"><stop offset="0%" stop-color="#bebebe" stop-opacity="1"/><stop offset="100%" stop-color="#f0f0f0" stop-opacity="1"/></linearGradient><linearGradient id="g-preparationcs1lfvnvm6xbt9" x1="0%" x2="100%" y1="0%" y2="0%" spreadMethod="pad"><stop offset="0%" stop-color="#bebebe" stop-opacity="1"/><stop offset="100%" stop-color="#f0f0f0" stop-opacity="1"/></linearGradient><linearGradient id="g-commentcs1lfvnvm6xbt9" x1="0%" x2="100%" y1="0%" y2="0%" spreadMethod="pad"><stop offset="0%" stop-color="#f5f588" stop-opacity="1"/><stop offset="100%" stop-color="#ffffba" stop-opacity="1"/></linearGradient><linearGradient id="g-manualcs1lfvnvm6xbt9" x1="0%" x2="100%" y1="0%" y2="0%" spreadMethod="pad"><stop offset="0%" stop-color="#9e78ff" stop-opacity="1"/><stop offset="100%" stop-color="#d0aaff" stop-opacity="1"/></linearGradient><filter id="dropshadowcs1lfvnvm6xbt9" height="150%" width="150%"><feGaussianBlur in="SourceAlpha" stdDeviation="3"/><feOffset dx="2" dy="2" result="offsetblur"/><feComponentTransfer/><feMerge><feMergeNode/><feMergeNode in="SourceGraphic"/></feMerge></filter></defs><g id="flowcs1lfvnvm6xbt9" class="graph" transform="scale(0.350541 0.350541) rotate(0) translate(4 2398)"><title>FlowChart</title><!-- dataio_block_1 --><g id="node1" class="node"><title>dataio_block_1</title><polygon fill="url(#g-dataiocs1lfvnvm6xbt9)" stroke="black" points="754.12,-2394 610.759,-2394 573.88,-2358 717.241,-2358 754.12,-2394"/><text xml:space="preserve" text-anchor="start" x="605.5" y="-2373.5" font-family="Open Sans" font-size="10.00"> Entrer séquence d'ADN </text></g><!-- process_block_2 --><g id="node2" class="node"><title>process_block_2</title><polygon fill="url(#g-processcs1lfvnvm6xbt9)" stroke="black" points="777.25,-2322 550.75,-2322 550.75,-2286 777.25,-2286 777.25,-2322"/><text xml:space="preserve" text-anchor="start" x="557.5" y="-2301.5" font-family="Open Sans" font-size="10.00">On sépare chaque caractère de la séquence</text></g><!-- dataio_block_1&#45;&gt;process_block_2 --><g id="edge1" class="edge"><title>dataio_block_1->process_block_2</title><path fill="none" stroke="black" d="M664,-2357.7C664,-2349.98 664,-2340.71 664,-2332.11"/><polygon fill="black" stroke="black" points="667.5,-2332.1 664,-2322.1 660.5,-2332.1 667.5,-2332.1"/></g><!-- ifs_block_3 --><g id="node3" class="node"><title>ifs_block_3</title><polygon fill="url(#g-decisioncs1lfvnvm6xbt9)" stroke="black" points="549,-2250 435.671,-2232 549,-2214 662.329,-2232 549,-2250"/><text xml:space="preserve" text-anchor="start" x="489" y="-2229.5" font-family="Open Sans" font-size="10.00">Séquence multiple de 8 ?</text></g><!-- process_block_2&#45;&gt;ifs_block_3 --><g id="edge2" class="edge"><title>process_block_2->ifs_block_3</title><path fill="none" stroke="black" d="M635.868,-2285.88C618.994,-2275.6 597.507,-2262.53 580.125,-2251.95"/><polygon fill="black" stroke="black" points="581.818,-2248.88 571.456,-2246.67 578.178,-2254.86 581.818,-2248.88"/></g><!-- ifs_block_4 --><g id="node4" class="node"><title>ifs_block_4</title><polygon fill="url(#g-decisioncs1lfvnvm6xbt9)" stroke="black" points="714,-2168 620.641,-2150 714,-2132 807.359,-2150 714,-2168"/><text xml:space="preserve" text-anchor="start" x="666" y="-2147.5" font-family="Open Sans" font-size="10.00">Itération terminée ?</text></g><!-- ifs_block_3&#45;&gt;ifs_block_4 --><g id="edge3" class="edge"><title>ifs_block_3->ifs_block_4</title><path fill="none" stroke="black" d="M575.51,-2218.15C603.827,-2204.42 648.807,-2182.61 679.779,-2167.59"/><polygon fill="black" stroke="black" points="681.437,-2170.68 688.908,-2163.17 678.383,-2164.38 681.437,-2170.68"/><text xml:space="preserve" text-anchor="start" x="642" y="-2189.5" font-family="Open Sans" font-weight="bold" font-size="10.00"> Vrai </text><polyline fill="none" stroke="Black" points="669,-2185.5 644.119,-2185.5 "/></g><!-- terminator_block_6 --><g id="node6" class="node"><title>terminator_block_6</title><ellipse fill="url(#g-terminatorcs1lfvnvm6xbt9)" stroke="black" cx="472" cy="-2150" rx="122.163" ry="18"/><text xml:space="preserve" text-anchor="start" x="376" y="-2147.5" font-family="Open Sans" font-size="10.00">Séquence incomplète, pas multiple de 8</text></g><!-- ifs_block_3&#45;&gt;terminator_block_6 --><g id="edge6" class="edge"><title>ifs_block_3->terminator_block_6</title><path fill="none" stroke="black" d="M534.517,-2215.95C523.519,-2204.53 508.167,-2188.58 495.429,-2175.34"/><polygon fill="black" stroke="black" points="497.741,-2172.7 488.284,-2167.92 492.697,-2177.55 497.741,-2172.7"/><text xml:space="preserve" text-anchor="start" x="516" y="-2189.5" font-family="Open Sans" font-weight="bold" font-size="10.00"> Faux </text><polyline fill="none" stroke="Black" points="546,-2185.5 505.364,-2185.5 "/></g><!-- ifs_block_4&#45;&gt;process_block_2 --><g id="edge5" class="edge"><title>ifs_block_4->process_block_2</title><path fill="none" stroke="black" d="M708.61,-2167.39C700.047,-2193.42 683.247,-2244.49 672.885,-2275.99"/><polygon fill="black" stroke="black" points="669.439,-2275.27 669.638,-2285.86 676.088,-2277.45 669.439,-2275.27"/><text xml:space="preserve" text-anchor="start" x="694" y="-2230.5" font-family="Open Sans" font-weight="bold" font-size="10.00"> Faux </text><polyline fill="none" stroke="Black" points="724,-2226.5 688.953,-2226.5 "/></g><!-- process_block_5 --><g id="node5" class="node"><title>process_block_5</title><polygon fill="url(#g-processcs1lfvnvm6xbt9)" stroke="black" points="775.25,-2086 652.75,-2086 652.75,-2050 775.25,-2050 775.25,-2086"/><text xml:space="preserve" text-anchor="start" x="659.5" y="-2065.5" font-family="Open Sans" font-size="10.00">Pour chaque caractère</text></g><!-- ifs_block_4&#45;&gt;process_block_5 --><g id="edge4" class="edge"><title>ifs_block_4->process_block_5</title><path fill="none" stroke="black" d="M714,-2131.64C714,-2121.3 714,-2107.94 714,-2096.22"/><polygon fill="black" stroke="black" points="717.5,-2096.05 714,-2086.05 710.5,-2096.05 717.5,-2096.05"/><text xml:space="preserve" text-anchor="start" x="714" y="-2107.5" font-family="Open Sans" font-weight="bold" font-size="10.00"> Vrai </text><polyline fill="none" stroke="Black" points="741,-2103.5 714,-2103.5 "/></g><!-- ifs_block_7 --><g id="node7" class="node"><title>ifs_block_7</title><polygon fill="url(#g-decisioncs1lfvnvm6xbt9)" stroke="black" points="576,-2014 443.95,-1996 576,-1978 708.05,-1996 576,-2014"/><text xml:space="preserve" text-anchor="start" x="504.5" y="-1993.5" font-family="Open Sans" font-size="10.00">Caractère n'est pas un ATCG ?</text></g><!-- process_block_5&#45;&gt;ifs_block_7 --><g id="edge7" class="edge"><title>process_block_5->ifs_block_7</title><path fill="none" stroke="black" d="M680.241,-2049.88C659.389,-2039.3 632.666,-2025.74 611.499,-2015.01"/><polygon fill="black" stroke="black" points="613.005,-2011.85 602.503,-2010.44 609.838,-2018.09 613.005,-2011.85"/></g><!-- ifs_block_8 --><g id="node8" class="node"><title>ifs_block_8</title><polygon fill="url(#g-decisioncs1lfvnvm6xbt9)" stroke="black" points="760,-1932 666.641,-1914 760,-1896 853.359,-1914 760,-1932"/><text xml:space="preserve" text-anchor="start" x="712" y="-1911.5" font-family="Open Sans" font-size="10.00">Itération terminée ?</text></g><!-- ifs_block_7&#45;&gt;ifs_block_8 --><g id="edge8" class="edge"><title>ifs_block_7->ifs_block_8</title><path fill="none" stroke="black" d="M605.972,-1981.97C638.086,-1968.01 689.072,-1945.84 723.501,-1930.87"/><polygon fill="black" stroke="black" points="724.968,-1934.05 732.743,-1926.85 722.176,-1927.63 724.968,-1934.05"/><text xml:space="preserve" text-anchor="start" x="680" y="-1953.5" font-family="Open Sans" font-weight="bold" font-size="10.00"> Faux </text><polyline fill="none" stroke="Black" points="710,-1949.5 679.652,-1949.5 "/></g><!-- terminator_block_10 --><g id="node10" class="node"><title>terminator_block_10</title><ellipse fill="url(#g-terminatorcs1lfvnvm6xbt9)" stroke="black" cx="414" cy="-1914" rx="227.336" ry="18"/><text xml:space="preserve" text-anchor="start" x="229" y="-1911.5" font-family="Open Sans" font-size="10.00">Séquence invalide, contient autre chose que des ATGC à la (aux) position(s) X</text></g><!-- ifs_block_7&#45;&gt;terminator_block_10 --><g id="edge11" class="edge"><title>ifs_block_7->terminator_block_10</title><path fill="none" stroke="black" d="M548.885,-1981.61C523.933,-1969.29 486.495,-1950.8 457.388,-1936.43"/><polygon fill="black" stroke="black" points="458.772,-1933.21 448.256,-1931.92 455.673,-1939.48 458.772,-1933.21"/><text xml:space="preserve" text-anchor="start" x="505" y="-1953.5" font-family="Open Sans" font-weight="bold" font-size="10.00"> Vrai </text><polyline fill="none" stroke="Black" points="532,-1949.5 483.461,-1949.5 "/></g><!-- ifs_block_8&#45;&gt;process_block_5 --><g id="edge10" class="edge"><title>ifs_block_8->process_block_5</title><path fill="none" stroke="black" d="M755.041,-1931.39C747.163,-1957.42 731.707,-2008.49 722.174,-2039.99"/><polygon fill="black" stroke="black" points="718.734,-2039.27 719.187,-2049.86 725.434,-2041.3 718.734,-2039.27"/><text xml:space="preserve" text-anchor="start" x="741" y="-1994.5" font-family="Open Sans" font-weight="bold" font-size="10.00"> Faux </text><polyline fill="none" stroke="Black" points="771,-1990.5 736.957,-1990.5 "/></g><!-- process_block_9 --><g id="node9" class="node"><title>process_block_9</title><polygon fill="url(#g-processcs1lfvnvm6xbt9)" stroke="black" points="869.25,-1850 650.75,-1850 650.75,-1814 869.25,-1814 869.25,-1850"/><text xml:space="preserve" text-anchor="start" x="657.5" y="-1829.5" font-family="Open Sans" font-size="10.00">Regrouper les caractères en une séquence</text></g><!-- ifs_block_8&#45;&gt;process_block_9 --><g id="edge9" class="edge"><title>ifs_block_8->process_block_9</title><path fill="none" stroke="black" d="M760,-1895.64C760,-1885.3 760,-1871.94 760,-1860.22"/><polygon fill="black" stroke="black" points="763.5,-1860.05 760,-1850.05 756.5,-1860.05 763.5,-1860.05"/><text xml:space="preserve" text-anchor="start" x="760" y="-1871.5" font-family="Open Sans" font-weight="bold" font-size="10.00"> Vrai </text><polyline fill="none" stroke="Black" points="787,-1867.5 760,-1867.5 "/></g><!-- switch_block_11 --><g id="node11" class="node"><title>switch_block_11</title><polygon fill="url(#g-decisioncs1lfvnvm6xbt9)" stroke="black" points="760,-1778 523.857,-1760 760,-1742 996.143,-1760 760,-1778"/><text xml:space="preserve" text-anchor="start" x="626" y="-1757.5" font-family="Open Sans" font-size="10.00">Remplacer chaque caractère par son équivalent binaire</text></g><!-- process_block_9&#45;&gt;switch_block_11 --><g id="edge12" class="edge"><title>process_block_9->switch_block_11</title><path fill="none" stroke="black" d="M760,-1813.7C760,-1805.98 760,-1796.71 760,-1788.11"/><polygon fill="black" stroke="black" points="763.5,-1788.1 760,-1778.1 756.5,-1788.1 763.5,-1788.1"/></g><!-- process_block_12 --><g id="node12" class="node"><title>process_block_12</title><polygon fill="url(#g-processcs1lfvnvm6xbt9)" stroke="black" points="668,-1696 614,-1696 614,-1660 668,-1660 668,-1696"/><text xml:space="preserve" text-anchor="start" x="623" y="-1675.5" font-family="Open Sans" font-size="10.00">A en 00</text></g><!-- switch_block_11&#45;&gt;process_block_12 --><g id="edge13" class="edge"><title>switch_block_11->process_block_12</title><path fill="none" stroke="black" d="M737.056,-1743.58C719.406,-1731.71 694.749,-1715.13 674.837,-1701.75"/><polygon fill="black" stroke="black" points="676.598,-1698.71 666.346,-1696.04 672.692,-1704.52 676.598,-1698.71"/><text xml:space="preserve" text-anchor="start" x="708" y="-1717.5" font-family="Open Sans" font-weight="bold" font-size="10.00"> A </text><polyline fill="none" stroke="Black" points="721,-1713.5 692.502,-1713.5 "/></g><!-- process_block_13 --><g id="node13" class="node"><title>process_block_13</title><polygon fill="url(#g-processcs1lfvnvm6xbt9)" stroke="black" points="748,-1696 694,-1696 694,-1660 748,-1660 748,-1696"/><text xml:space="preserve" text-anchor="start" x="703" y="-1675.5" font-family="Open Sans" font-size="10.00">T en 01</text></g><!-- switch_block_11&#45;&gt;process_block_13 --><g id="edge14" class="edge"><title>switch_block_11->process_block_13</title><path fill="none" stroke="black" d="M751.919,-1742.42C746.708,-1731.73 739.817,-1717.6 733.863,-1705.39"/><polygon fill="black" stroke="black" points="736.868,-1703.56 729.34,-1696.11 730.576,-1706.63 736.868,-1703.56"/><text xml:space="preserve" text-anchor="start" x="743" y="-1717.5" font-family="Open Sans" font-weight="bold" font-size="10.00"> T </text><polyline fill="none" stroke="Black" points="755,-1713.5 737.878,-1713.5 "/></g><!-- process_block_14 --><g id="node14" class="node"><title>process_block_14</title><polygon fill="url(#g-processcs1lfvnvm6xbt9)" stroke="black" points="828,-1696 774,-1696 774,-1660 828,-1660 828,-1696"/><text xml:space="preserve" text-anchor="start" x="782.5" y="-1675.5" font-family="Open Sans" font-size="10.00">G en 10</text></g><!-- switch_block_11&#45;&gt;process_block_14 --><g id="edge15" class="edge"><title>switch_block_11->process_block_14</title><path fill="none" stroke="black" d="M768.495,-1742.42C774.028,-1731.63 781.361,-1717.32 787.663,-1705.02"/><polygon fill="black" stroke="black" points="790.787,-1706.6 792.233,-1696.11 784.557,-1703.41 790.787,-1706.6"/><text xml:space="preserve" text-anchor="start" x="783" y="-1717.5" font-family="Open Sans" font-weight="bold" font-size="10.00"> G </text><polyline fill="none" stroke="Black" points="796,-1713.5 783.409,-1713.5 "/></g><!-- process_block_15 --><g id="node15" class="node"><title>process_block_15</title><polygon fill="url(#g-processcs1lfvnvm6xbt9)" stroke="black" points="908,-1696 854,-1696 854,-1660 908,-1660 908,-1696"/><text xml:space="preserve" text-anchor="start" x="863" y="-1675.5" font-family="Open Sans" font-size="10.00">C en 11</text></g><!-- switch_block_11&#45;&gt;process_block_15 --><g id="edge16" class="edge"><title>switch_block_11->process_block_15</title><path fill="none" stroke="black" d="M783.33,-1743.58C801.357,-1731.66 826.572,-1714.99 846.867,-1701.57"/><polygon fill="black" stroke="black" points="848.817,-1704.47 855.228,-1696.04 844.956,-1698.63 848.817,-1704.47"/><text xml:space="preserve" text-anchor="start" x="828" y="-1717.5" font-family="Open Sans" font-weight="bold" font-size="10.00"> C </text><polyline fill="none" stroke="Black" points="840,-1713.5 828.845,-1713.5 "/></g><!-- process_block_16 --><g id="node16" class="node"><title>process_block_16</title><polygon fill="url(#g-processcs1lfvnvm6xbt9)" stroke="black" points="822.25,-1624 699.75,-1624 699.75,-1588 822.25,-1588 822.25,-1624"/><text xml:space="preserve" text-anchor="start" x="706.5" y="-1603.5" font-family="Open Sans" font-size="10.00">Pour chaque caractère</text></g><!-- process_block_12&#45;&gt;process_block_16 --><g id="edge17" class="edge"><title>process_block_12->process_block_16</title><path fill="none" stroke="black" d="M668.23,-1661.12C684.365,-1651.7 705.06,-1639.63 722.808,-1629.28"/><polygon fill="black" stroke="black" points="724.907,-1632.11 731.781,-1624.04 721.38,-1626.06 724.907,-1632.11"/></g><!-- process_block_13&#45;&gt;process_block_16 --><g id="edge18" class="edge"><title>process_block_13->process_block_16</title><path fill="none" stroke="black" d="M730.888,-1659.7C735.489,-1651.64 741.06,-1641.89 746.153,-1632.98"/><polygon fill="black" stroke="black" points="749.304,-1634.52 751.226,-1624.1 743.226,-1631.05 749.304,-1634.52"/></g><!-- process_block_14&#45;&gt;process_block_16 --><g id="edge19" class="edge"><title>process_block_14->process_block_16</title><path fill="none" stroke="black" d="M791.112,-1659.7C786.511,-1651.64 780.94,-1641.89 775.847,-1632.98"/><polygon fill="black" stroke="black" points="778.774,-1631.05 770.774,-1624.1 772.696,-1634.52 778.774,-1631.05"/></g><!-- process_block_15&#45;&gt;process_block_16 --><g id="edge20" class="edge"><title>process_block_15->process_block_16</title><path fill="none" stroke="black" d="M853.77,-1661.12C837.635,-1651.7 816.94,-1639.63 799.192,-1629.28"/><polygon fill="black" stroke="black" points="800.62,-1626.06 790.219,-1624.04 797.093,-1632.11 800.62,-1626.06"/></g><!-- switch_block_17 --><g id="node17" class="node"><title>switch_block_17</title><polygon fill="url(#g-decisioncs1lfvnvm6xbt9)" stroke="black" points="641,-1552 520.433,-1534 641,-1516 761.567,-1534 641,-1552"/><text xml:space="preserve" text-anchor="start" x="576.5" y="-1531.5" font-family="Open Sans" font-size="10.00">Position paire ou impaire ?</text></g><!-- process_block_16&#45;&gt;switch_block_17 --><g id="edge21" class="edge"><title>process_block_16->switch_block_17</title><path fill="none" stroke="black" d="M731.645,-1587.88C714.037,-1577.6 691.616,-1564.53 673.478,-1553.95"/><polygon fill="black" stroke="black" points="674.833,-1550.68 664.432,-1548.67 671.306,-1556.73 674.833,-1550.68"/></g><!-- process_block_18 --><g id="node18" class="node"><title>process_block_18</title><polygon fill="url(#g-processcs1lfvnvm6xbt9)" stroke="black" points="755.25,-1470 652.75,-1470 652.75,-1434 755.25,-1434 755.25,-1470"/><text xml:space="preserve" text-anchor="start" x="659.5" y="-1449.5" font-family="Open Sans" font-size="10.00">Grouper tous les 8</text></g><!-- switch_block_17&#45;&gt;process_block_18 --><g id="edge22" class="edge"><title>switch_block_17->process_block_18</title><path fill="none" stroke="black" d="M656.772,-1518.01C662.459,-1512.28 668.762,-1505.55 674,-1499 678.992,-1492.75 683.934,-1485.66 688.321,-1478.95"/><polygon fill="black" stroke="black" points="691.506,-1480.46 693.915,-1470.15 685.597,-1476.71 691.506,-1480.46"/><text xml:space="preserve" text-anchor="start" x="683" y="-1491.5" font-family="Open Sans" font-weight="bold" font-size="10.00"> Impaire </text><polyline fill="none" stroke="Black" points="728,-1487.5 683.178,-1487.5 "/></g><!-- switch_block_17&#45;&gt;process_block_18 --><g id="edge23" class="edge"><title>switch_block_17->process_block_18</title><path fill="none" stroke="black" d="M634.446,-1516.56C631.844,-1507.25 630.594,-1495.75 636,-1487 638.447,-1483.04 641.51,-1479.53 644.974,-1476.41"/><polygon fill="black" stroke="black" points="647.28,-1479.05 653.111,-1470.21 643.036,-1473.49 647.28,-1479.05"/><text xml:space="preserve" text-anchor="start" x="636" y="-1491.5" font-family="Open Sans" font-weight="bold" font-size="10.00"> Paire </text><polyline fill="none" stroke="Black" points="668,-1487.5 635.513,-1487.5 "/></g><!-- ifs_block_20 --><g id="node19" class="node"><title>ifs_block_20</title><polygon fill="url(#g-decisioncs1lfvnvm6xbt9)" stroke="black" points="769,-1398 675.641,-1380 769,-1362 862.359,-1380 769,-1398"/><text xml:space="preserve" text-anchor="start" x="721" y="-1377.5" font-family="Open Sans" font-size="10.00">Itération terminée ?</text></g><!-- process_block_18&#45;&gt;ifs_block_20 --><g id="edge24" class="edge"><title>process_block_18->ifs_block_20</title><path fill="none" stroke="black" d="M720.067,-1433.7C728.611,-1424.5 739.21,-1413.08 748.357,-1403.23"/><polygon fill="black" stroke="black" points="751.075,-1405.45 755.314,-1395.74 745.945,-1400.68 751.075,-1405.45"/></g><!-- ifs_block_20&#45;&gt;process_block_16 --><g id="edge26" class="edge"><title>ifs_block_20->process_block_16</title><path fill="none" stroke="black" d="M771.176,-1398.07C774.737,-1428.92 780.77,-1495.98 774,-1552 772.977,-1560.47 771.067,-1569.53 769.019,-1577.72"/><polygon fill="black" stroke="black" points="765.599,-1576.97 766.409,-1587.53 772.364,-1578.77 765.599,-1576.97"/><text xml:space="preserve" text-anchor="start" x="778" y="-1491.5" font-family="Open Sans" font-weight="bold" font-size="10.00"> Faux </text><polyline fill="none" stroke="Black" points="808,-1487.5 777.021,-1487.5 "/></g><!-- process_block_21 --><g id="node20" class="node"><title>process_block_21</title><polygon fill="url(#g-processcs1lfvnvm6xbt9)" stroke="black" points="924.25,-1316 613.75,-1316 613.75,-1280 924.25,-1280 924.25,-1316"/><text xml:space="preserve" text-anchor="start" x="620.5" y="-1295.5" font-family="Open Sans" font-size="10.00">Mettre à la suite un groupe de paires et un groupe d'impaires</text></g><!-- ifs_block_20&#45;&gt;process_block_21 --><g id="edge25" class="edge"><title>ifs_block_20->process_block_21</title><path fill="none" stroke="black" d="M769,-1361.64C769,-1351.3 769,-1337.94 769,-1326.22"/><polygon fill="black" stroke="black" points="772.5,-1326.05 769,-1316.05 765.5,-1326.05 772.5,-1326.05"/><text xml:space="preserve" text-anchor="start" x="769" y="-1337.5" font-family="Open Sans" font-weight="bold" font-size="10.00"> Vrai </text><polyline fill="none" stroke="Black" points="796,-1333.5 769,-1333.5 "/></g><!-- process_block_22 --><g id="node21" class="node"><title>process_block_22</title><polygon fill="url(#g-processcs1lfvnvm6xbt9)" stroke="black" points="824,-1244 714,-1244 714,-1208 824,-1208 824,-1244"/><text xml:space="preserve" text-anchor="start" x="721" y="-1223.5" font-family="Open Sans" font-size="10.00">Pour chaque groupe</text></g><!-- process_block_21&#45;&gt;process_block_22 --><g id="edge27" class="edge"><title>process_block_21->process_block_22</title><path fill="none" stroke="black" d="M769,-1279.7C769,-1271.98 769,-1262.71 769,-1254.11"/><polygon fill="black" stroke="black" points="772.5,-1254.1 769,-1244.1 765.5,-1254.1 772.5,-1254.1"/></g><!-- ifs_block_23 --><g id="node22" class="node"><title>ifs_block_23</title><polygon fill="url(#g-decisioncs1lfvnvm6xbt9)" stroke="black" points="399,-1172 279.93,-1154 399,-1136 518.07,-1154 399,-1172"/><text xml:space="preserve" text-anchor="start" x="335.5" y="-1151.5" font-family="Open Sans" font-size="10.00">P4 = P1 + P2 + P3 mod 2 ? </text></g><!-- process_block_22&#45;&gt;ifs_block_23 --><g id="edge28" class="edge"><title>process_block_22->ifs_block_23</title><path fill="none" stroke="black" d="M713.607,-1214.52C645.299,-1201.6 529.615,-1179.71 459.178,-1166.38"/><polygon fill="black" stroke="black" points="459.601,-1162.9 449.125,-1164.48 458.3,-1169.78 459.601,-1162.9"/></g><!-- process_block_24 --><g id="node23" class="node"><title>process_block_24</title><polygon fill="url(#g-processcs1lfvnvm6xbt9)" stroke="black" points="463.25,-1090 334.75,-1090 334.75,-1054 463.25,-1054 463.25,-1090"/><text xml:space="preserve" text-anchor="start" x="341.5" y="-1069.5" font-family="Open Sans" font-size="10.00">Pas de mutation de bits</text></g><!-- ifs_block_23&#45;&gt;process_block_24 --><g id="edge29" class="edge"><title>ifs_block_23->process_block_24</title><path fill="none" stroke="black" d="M399,-1135.64C399,-1125.3 399,-1111.94 399,-1100.22"/><polygon fill="black" stroke="black" points="402.5,-1100.05 399,-1090.05 395.5,-1100.05 402.5,-1100.05"/><text xml:space="preserve" text-anchor="start" x="399" y="-1111.5" font-family="Open Sans" font-weight="bold" font-size="10.00"> Vrai </text><polyline fill="none" stroke="Black" points="426,-1107.5 399,-1107.5 "/></g><!-- process_block_25 --><g id="node24" class="node"><title>process_block_25</title><polygon fill="url(#g-processcs1lfvnvm6xbt9)" stroke="black" points="280,-1037 0,-1037 0,-1001 280,-1001 280,-1037"/><text xml:space="preserve" text-anchor="start" x="7" y="-1016.5" font-family="Open Sans" font-size="10.00">Mutation de bits P pour la partie X/X, pas de correction</text></g><!-- ifs_block_23&#45;&gt;process_block_25 --><g id="edge30" class="edge"><title>ifs_block_23->process_block_25</title><path fill="none" stroke="black" d="M373.219,-1139.76C328.587,-1116.84 236.52,-1069.56 182.368,-1041.76"/><polygon fill="black" stroke="black" points="183.861,-1038.59 173.367,-1037.13 180.664,-1044.82 183.861,-1038.59"/><text xml:space="preserve" text-anchor="start" x="329" y="-1111.5" font-family="Open Sans" font-weight="bold" font-size="10.00"> Faux </text><polyline fill="none" stroke="Black" points="359,-1107.5 310.683,-1107.5 "/></g><!-- process_block_26 --><g id="node25" class="node"><title>process_block_26</title><polygon fill="url(#g-processcs1lfvnvm6xbt9)" stroke="black" points="464.25,-984 333.75,-984 333.75,-948 464.25,-948 464.25,-984"/><text xml:space="preserve" text-anchor="start" x="340.5" y="-963.5" font-family="Open Sans" font-size="10.00">Vérification de mutation</text></g><!-- process_block_24&#45;&gt;process_block_26 --><g id="edge32" class="edge"><title>process_block_24->process_block_26</title><path fill="none" stroke="black" d="M399,-1053.83C399,-1037.64 399,-1013.13 399,-994.273"/><polygon fill="black" stroke="black" points="402.5,-994.199 399,-984.199 395.5,-994.199 402.5,-994.199"/></g><!-- process_block_43 --><g id="node42" class="node"><title>process_block_43</title><polygon fill="url(#g-processcs1lfvnvm6xbt9)" stroke="black" points="515.25,-190 368.75,-190 368.75,-154 515.25,-154 515.25,-190"/><text xml:space="preserve" text-anchor="start" x="375.5" y="-169.5" font-family="Open Sans" font-size="10.00">Ajouter les bits de Données</text></g><!-- process_block_25&#45;&gt;process_block_43 --><g id="edge31" class="edge"><title>process_block_25->process_block_43</title><path fill="none" stroke="black" d="M134.305,-1000.88C129.031,-983.493 122,-955.678 122,-931 122,-931 122,-931 122,-243 122,-194.577 263.603,-179.602 358.417,-175.002"/><polygon fill="black" stroke="black" points="358.755,-178.49 368.586,-174.539 358.437,-171.498 358.755,-178.49"/></g><!-- ifs_block_27 --><g id="node26" class="node"><title>ifs_block_27</title><polygon fill="url(#g-decisioncs1lfvnvm6xbt9)" stroke="black" points="399,-912 279.93,-894 399,-876 518.07,-894 399,-912"/><text xml:space="preserve" text-anchor="start" x="335.5" y="-891.5" font-family="Open Sans" font-size="10.00">P1 = D1 + D2 + D3 mod 2 ?</text></g><!-- process_block_26&#45;&gt;ifs_block_27 --><g id="edge33" class="edge"><title>process_block_26->ifs_block_27</title><path fill="none" stroke="black" d="M399,-947.697C399,-939.983 399,-930.712 399,-922.112"/><polygon fill="black" stroke="black" points="402.5,-922.104 399,-912.104 395.5,-922.104 402.5,-922.104"/></g><!-- process_block_28 --><g id="node27" class="node"><title>process_block_28</title><polygon fill="url(#g-processcs1lfvnvm6xbt9)" stroke="black" points="373.25,-830 200.75,-830 200.75,-794 373.25,-794 373.25,-830"/><text xml:space="preserve" text-anchor="start" x="207.5" y="-809.5" font-family="Open Sans" font-size="10.00">Pas de mutation de D1, D2 ou D3</text></g><!-- ifs_block_27&#45;&gt;process_block_28 --><g id="edge34" class="edge"><title>ifs_block_27->process_block_28</title><path fill="none" stroke="black" d="M379.234,-878.882C362.605,-867.003 338.504,-849.788 319.108,-835.935"/><polygon fill="black" stroke="black" points="321.018,-832.998 310.847,-830.033 316.95,-838.694 321.018,-832.998"/><text xml:space="preserve" text-anchor="start" x="350" y="-851.5" font-family="Open Sans" font-weight="bold" font-size="10.00"> Vrai </text><polyline fill="none" stroke="Black" points="377,-847.5 334.347,-847.5 "/></g><!-- process_block_29 --><g id="node28" class="node"><title>process_block_29</title><polygon fill="url(#g-processcs1lfvnvm6xbt9)" stroke="black" points="538,-830 400,-830 400,-794 538,-794 538,-830"/><text xml:space="preserve" text-anchor="start" x="407" y="-809.5" font-family="Open Sans" font-size="10.00">Mutation de D1, D2 ou D3</text></g><!-- ifs_block_27&#45;&gt;process_block_29 --><g id="edge35" class="edge"><title>ifs_block_27->process_block_29</title><path fill="none" stroke="black" d="M412.166,-877.953C422.006,-866.708 435.678,-851.083 447.146,-837.976"/><polygon fill="black" stroke="black" points="449.997,-840.032 453.948,-830.202 444.729,-835.423 449.997,-840.032"/><text xml:space="preserve" text-anchor="start" x="439" y="-851.5" font-family="Open Sans" font-weight="bold" font-size="10.00"> Faux </text><polyline fill="none" stroke="Black" points="469,-847.5 438.226,-847.5 "/></g><!-- ifs_block_30 --><g id="node29" class="node"><title>ifs_block_30</title><polygon fill="url(#g-decisioncs1lfvnvm6xbt9)" stroke="black" points="382,-758 262.93,-740 382,-722 501.07,-740 382,-758"/><text xml:space="preserve" text-anchor="start" x="318.5" y="-737.5" font-family="Open Sans" font-size="10.00">P2 = D1 + D2 + D4 mod 2 ?</text></g><!-- process_block_28&#45;&gt;ifs_block_30 --><g id="edge36" class="edge"><title>process_block_28->ifs_block_30</title><path fill="none" stroke="black" d="M310.483,-793.697C323.77,-783.907 340.458,-771.61 354.372,-761.357"/><polygon fill="black" stroke="black" points="356.647,-764.029 362.621,-755.279 352.495,-758.393 356.647,-764.029"/></g><!-- process_block_29&#45;&gt;ifs_block_30 --><g id="edge37" class="edge"><title>process_block_29->ifs_block_30</title><path fill="none" stroke="black" d="M447.494,-793.697C435.524,-784.065 420.538,-772.008 407.923,-761.858"/><polygon fill="black" stroke="black" points="410.017,-759.05 400.031,-755.508 405.629,-764.504 410.017,-759.05"/></g><!-- process_block_31 --><g id="node30" class="node"><title>process_block_31</title><polygon fill="url(#g-processcs1lfvnvm6xbt9)" stroke="black" points="422.25,-676 249.75,-676 249.75,-640 422.25,-640 422.25,-676"/><text xml:space="preserve" text-anchor="start" x="256.5" y="-655.5" font-family="Open Sans" font-size="10.00">Pas de mutation de D1, D2 ou D4</text></g><!-- ifs_block_30&#45;&gt;process_block_31 --><g id="edge38" class="edge"><title>ifs_block_30->process_block_31</title><path fill="none" stroke="black" d="M372.912,-723.195C366.633,-712.275 358.139,-697.503 350.882,-684.881"/><polygon fill="black" stroke="black" points="353.884,-683.082 345.866,-676.157 347.816,-686.571 353.884,-683.082"/><text xml:space="preserve" text-anchor="start" x="362" y="-697.5" font-family="Open Sans" font-weight="bold" font-size="10.00"> Vrai </text><polyline fill="none" stroke="Black" points="389,-693.5 355.786,-693.5 "/></g><!-- process_block_32 --><g id="node31" class="node"><title>process_block_32</title><polygon fill="url(#g-processcs1lfvnvm6xbt9)" stroke="black" points="587,-676 449,-676 449,-640 587,-640 587,-676"/><text xml:space="preserve" text-anchor="start" x="456" y="-655.5" font-family="Open Sans" font-size="10.00">Mutation de D1, D2 ou D4</text></g><!-- ifs_block_30&#45;&gt;process_block_32 --><g id="edge39" class="edge"><title>ifs_block_30->process_block_32</title><path fill="none" stroke="black" d="M405.071,-725.429C425.499,-713.412 455.72,-695.635 479.759,-681.495"/><polygon fill="black" stroke="black" points="481.792,-684.36 488.637,-676.273 478.243,-678.326 481.792,-684.36"/><text xml:space="preserve" text-anchor="start" x="459" y="-697.5" font-family="Open Sans" font-weight="bold" font-size="10.00"> Faux </text><polyline fill="none" stroke="Black" points="489,-693.5 460.82,-693.5 "/></g><!-- ifs_block_33 --><g id="node32" class="node"><title>ifs_block_33</title><polygon fill="url(#g-decisioncs1lfvnvm6xbt9)" stroke="black" points="417,-604 297.93,-586 417,-568 536.07,-586 417,-604"/><text xml:space="preserve" text-anchor="start" x="353.5" y="-583.5" font-family="Open Sans" font-size="10.00">P3 = D2 + D3 + D4 mod 2 ?</text></g><!-- process_block_31&#45;&gt;ifs_block_33 --><g id="edge40" class="edge"><title>process_block_31->ifs_block_33</title><path fill="none" stroke="black" d="M356.022,-639.697C367.061,-630.157 380.854,-618.237 392.528,-608.148"/><polygon fill="black" stroke="black" points="394.935,-610.695 400.212,-601.508 390.357,-605.399 394.935,-610.695"/></g><!-- process_block_32&#45;&gt;ifs_block_33 --><g id="edge41" class="edge"><title>process_block_32->ifs_block_33</title><path fill="none" stroke="black" d="M493.293,-639.876C478.94,-629.929 460.787,-617.348 445.79,-606.954"/><polygon fill="black" stroke="black" points="447.59,-603.942 437.377,-601.123 443.602,-609.696 447.59,-603.942"/></g><!-- process_block_34 --><g id="node33" class="node"><title>process_block_34</title><polygon fill="url(#g-processcs1lfvnvm6xbt9)" stroke="black" points="420.25,-522 247.75,-522 247.75,-486 420.25,-486 420.25,-522"/><text xml:space="preserve" text-anchor="start" x="254.5" y="-501.5" font-family="Open Sans" font-size="10.00">Pas de mutation de D1, D2 ou D4</text></g><!-- ifs_block_33&#45;&gt;process_block_34 --><g id="edge42" class="edge"><title>ifs_block_33->process_block_34</title><path fill="none" stroke="black" d="M401.388,-569.953C389.502,-558.496 372.898,-542.492 359.145,-529.237"/><polygon fill="black" stroke="black" points="361.476,-526.622 351.847,-522.202 356.618,-531.662 361.476,-526.622"/><text xml:space="preserve" text-anchor="start" x="381" y="-543.5" font-family="Open Sans" font-weight="bold" font-size="10.00"> Vrai </text><polyline fill="none" stroke="Black" points="408,-539.5 369.876,-539.5 "/></g><!-- process_block_35 --><g id="node34" class="node"><title>process_block_35</title><polygon fill="url(#g-processcs1lfvnvm6xbt9)" stroke="black" points="585,-522 447,-522 447,-486 585,-486 585,-522"/><text xml:space="preserve" text-anchor="start" x="454" y="-501.5" font-family="Open Sans" font-size="10.00">Mutation de D2, D3 ou D4</text></g><!-- ifs_block_33&#45;&gt;process_block_35 --><g id="edge43" class="edge"><title>ifs_block_33->process_block_35</title><path fill="none" stroke="black" d="M435.158,-570.327C449.645,-558.62 470.218,-541.996 486.983,-528.448"/><polygon fill="black" stroke="black" points="489.286,-531.087 494.864,-522.079 484.887,-525.642 489.286,-531.087"/><text xml:space="preserve" text-anchor="start" x="473" y="-543.5" font-family="Open Sans" font-weight="bold" font-size="10.00"> Faux </text><polyline fill="none" stroke="Black" points="503,-539.5 473.85,-539.5 "/></g><!-- switch_block_36 --><g id="node35" class="node"><title>switch_block_36</title><polygon fill="url(#g-decisioncs1lfvnvm6xbt9)" stroke="black" points="407,-450 354.079,-432 407,-414 459.921,-432 407,-450"/><text xml:space="preserve" text-anchor="start" x="383" y="-429.5" font-family="Open Sans" font-size="10.00">Mutation?</text></g><!-- process_block_34&#45;&gt;switch_block_36 --><g id="edge44" class="edge"><title>process_block_34->switch_block_36</title><path fill="none" stroke="black" d="M352.045,-485.697C362.373,-475.793 375.377,-463.323 386.142,-453.001"/><polygon fill="black" stroke="black" points="388.72,-455.378 393.515,-445.931 383.875,-450.326 388.72,-455.378"/></g><!-- process_block_35&#45;&gt;switch_block_36 --><g id="edge45" class="edge"><title>process_block_35->switch_block_36</title><path fill="none" stroke="black" d="M489.336,-485.876C472.319,-474.948 450.352,-460.841 433.389,-449.947"/><polygon fill="black" stroke="black" points="434.849,-446.725 424.543,-444.266 431.066,-452.615 434.849,-446.725"/></g><!-- process_block_37 --><g id="node36" class="node"><title>process_block_37</title><polygon fill="url(#g-processcs1lfvnvm6xbt9)" stroke="black" points="275.25,-315 182.75,-315 182.75,-279 275.25,-279 275.25,-315"/><text xml:space="preserve" text-anchor="start" x="189.5" y="-294.5" font-family="Open Sans" font-size="10.00">Pas de mutation</text></g><!-- switch_block_36&#45;&gt;process_block_37 --><g id="edge46" class="edge"><title>switch_block_36->process_block_37</title><path fill="none" stroke="black" d="M391.204,-419.197C361.857,-397.269 298.439,-349.884 260.172,-321.292"/><polygon fill="black" stroke="black" points="262.053,-318.328 251.947,-315.146 257.863,-323.935 262.053,-318.328"/><text xml:space="preserve" text-anchor="start" x="359" y="-389.5" font-family="Open Sans" font-weight="bold" font-size="10.00"> Non </text><polyline fill="none" stroke="Black" points="386,-385.5 346.938,-385.5 "/></g><!-- switch_block_38 --><g id="node37" class="node"><title>switch_block_38</title><polygon fill="url(#g-decisioncs1lfvnvm6xbt9)" stroke="black" points="442,-368 381.839,-350 442,-332 502.161,-350 442,-368"/><text xml:space="preserve" text-anchor="start" x="413.5" y="-347.5" font-family="Open Sans" font-size="10.00">Sur quels P?</text></g><!-- switch_block_36&#45;&gt;switch_block_38 --><g id="edge47" class="edge"><title>switch_block_36->switch_block_38</title><path fill="none" stroke="black" d="M413.583,-415.953C418.538,-404.627 425.437,-388.858 431.196,-375.694"/><polygon fill="black" stroke="black" points="434.526,-376.816 435.327,-366.252 428.112,-374.011 434.526,-376.816"/><text xml:space="preserve" text-anchor="start" x="427" y="-389.5" font-family="Open Sans" font-weight="bold" font-size="10.00"> Oui </text><polyline fill="none" stroke="Black" points="451,-385.5 426.711,-385.5 "/></g><!-- process_block_37&#45;&gt;process_block_43 --><g id="edge52" class="edge"><title>process_block_37->process_block_43</title><path fill="none" stroke="black" d="M212.542,-278.941C208.656,-273.876 205.049,-268.053 203,-262 197.869,-246.845 192.986,-238.478 203,-226 222.434,-201.784 297.543,-187.945 358.442,-180.527"/><polygon fill="black" stroke="black" points="358.946,-183.992 368.468,-179.347 358.128,-177.04 358.946,-183.992"/></g><!-- process_block_39 --><g id="node38" class="node"><title>process_block_39</title><polygon fill="url(#g-processcs1lfvnvm6xbt9)" stroke="black" points="508.25,-262 375.75,-262 375.75,-226 508.25,-226 508.25,-262"/><text xml:space="preserve" text-anchor="start" x="382.5" y="-241.5" font-family="Open Sans" font-size="10.00">D1 est muté, on l'inverse</text></g><!-- switch_block_38&#45;&gt;process_block_39 --><g id="edge48" class="edge"><title>switch_block_38->process_block_39</title><path fill="none" stroke="black" d="M442,-331.827C442,-315.643 442,-291.131 442,-272.273"/><polygon fill="black" stroke="black" points="445.5,-272.199 442,-262.199 438.5,-272.199 445.5,-272.199"/><text xml:space="preserve" text-anchor="start" x="442" y="-295.5" font-family="Open Sans" font-weight="bold" font-size="10.00"> P1 et P2 </text><polyline fill="none" stroke="Black" points="488,-291.5 442,-291.5 "/></g><!-- process_block_40 --><g id="node39" class="node"><title>process_block_40</title><polygon fill="url(#g-processcs1lfvnvm6xbt9)" stroke="black" points="667.25,-262 534.75,-262 534.75,-226 667.25,-226 667.25,-262"/><text xml:space="preserve" text-anchor="start" x="541.5" y="-241.5" font-family="Open Sans" font-size="10.00">D3 est muté, on l'inverse</text></g><!-- switch_block_38&#45;&gt;process_block_40 --><g id="edge49" class="edge"><title>switch_block_38->process_block_40</title><path fill="none" stroke="black" d="M459.93,-337.272C485.726,-320.399 533.805,-288.952 566.593,-267.505"/><polygon fill="black" stroke="black" points="568.538,-270.416 574.99,-262.013 564.706,-264.557 568.538,-270.416"/><text xml:space="preserve" text-anchor="start" x="546" y="-295.5" font-family="Open Sans" font-weight="bold" font-size="10.00"> P1 et P3 </text><polyline fill="none" stroke="Black" points="592,-291.5 528.886,-291.5 "/></g><!-- process_block_41 --><g id="node40" class="node"><title>process_block_41</title><polygon fill="url(#g-processcs1lfvnvm6xbt9)" stroke="black" points="826.25,-262 693.75,-262 693.75,-226 826.25,-226 826.25,-262"/><text xml:space="preserve" text-anchor="start" x="700.5" y="-241.5" font-family="Open Sans" font-size="10.00">D4 est muté, on l'inverse</text></g><!-- switch_block_38&#45;&gt;process_block_41 --><g id="edge50" class="edge"><title>switch_block_38->process_block_41</title><path fill="none" stroke="black" d="M479.094,-343.002C511.04,-337.344 558.155,-327.818 598,-315 639.279,-301.721 684.43,-281.73 716.555,-266.506"/><polygon fill="black" stroke="black" points="718.159,-269.619 725.671,-262.149 715.14,-263.304 718.159,-269.619"/><text xml:space="preserve" text-anchor="start" x="688" y="-295.5" font-family="Open Sans" font-weight="bold" font-size="10.00"> P2 et P3 </text><polyline fill="none" stroke="Black" points="734,-291.5 660.71,-291.5 "/></g><!-- process_block_42 --><g id="node41" class="node"><title>process_block_42</title><polygon fill="url(#g-processcs1lfvnvm6xbt9)" stroke="black" points="349.25,-262 216.75,-262 216.75,-226 349.25,-226 349.25,-262"/><text xml:space="preserve" text-anchor="start" x="223.5" y="-241.5" font-family="Open Sans" font-size="10.00">D2 est muté, on l'inverse</text></g><!-- switch_block_38&#45;&gt;process_block_42 --><g id="edge51" class="edge"><title>switch_block_38->process_block_42</title><path fill="none" stroke="black" d="M418.317,-339.027C404.432,-332.809 386.773,-324.248 372,-315 350.091,-301.285 327.21,-283.193 310.134,-268.838"/><polygon fill="black" stroke="black" points="312.132,-265.942 302.248,-262.126 307.595,-271.273 312.132,-265.942"/><text xml:space="preserve" text-anchor="start" x="372" y="-295.5" font-family="Open Sans" font-weight="bold" font-size="10.00"> P1, P2 et P3 </text><polyline fill="none" stroke="Black" points="436,-291.5 339.255,-291.5 "/></g><!-- process_block_39&#45;&gt;process_block_43 --><g id="edge53" class="edge"><title>process_block_39->process_block_43</title><path fill="none" stroke="black" d="M442,-225.697C442,-217.983 442,-208.712 442,-200.112"/><polygon fill="black" stroke="black" points="445.5,-200.104 442,-190.104 438.5,-200.104 445.5,-200.104"/></g><!-- process_block_40&#45;&gt;process_block_43 --><g id="edge54" class="edge"><title>process_block_40->process_block_43</title><path fill="none" stroke="black" d="M562.104,-225.876C540.368,-216.307 513.096,-204.3 490.036,-194.148"/><polygon fill="black" stroke="black" points="491.332,-190.894 480.769,-190.068 488.511,-197.301 491.332,-190.894"/></g><!-- process_block_41&#45;&gt;process_block_43 --><g id="edge55" class="edge"><title>process_block_41->process_block_43</title><path fill="none" stroke="black" d="M693.724,-228.411C644.817,-217.645 577.919,-202.919 525.38,-191.354"/><polygon fill="black" stroke="black" points="525.928,-187.891 515.41,-189.159 524.423,-194.727 525.928,-187.891"/></g><!-- process_block_42&#45;&gt;process_block_43 --><g id="edge56" class="edge"><title>process_block_42->process_block_43</title><path fill="none" stroke="black" d="M321.896,-225.876C343.632,-216.307 370.904,-204.3 393.964,-194.148"/><polygon fill="black" stroke="black" points="395.489,-197.301 403.231,-190.068 392.668,-190.894 395.489,-197.301"/></g><!-- ifs_block_44 --><g id="node43" class="node"><title>ifs_block_44</title><polygon fill="url(#g-decisioncs1lfvnvm6xbt9)" stroke="black" points="752,-118 658.641,-100 752,-82 845.359,-100 752,-118"/><text xml:space="preserve" text-anchor="start" x="704" y="-97.5" font-family="Open Sans" font-size="10.00">Itération terminée ?</text></g><!-- process_block_43&#45;&gt;ifs_block_44 --><g id="edge57" class="edge"><title>process_block_43->ifs_block_44</title><path fill="none" stroke="black" d="M515.466,-154.411C572.752,-141.475 650.812,-123.849 701.31,-112.446"/><polygon fill="black" stroke="black" points="702.355,-115.798 711.339,-110.182 700.813,-108.97 702.355,-115.798"/></g><!-- ifs_block_44&#45;&gt;process_block_22 --><g id="edge59" class="edge"><title>ifs_block_44->process_block_22</title><path fill="none" stroke="black" d="M796.462,-109.485C828.823,-118.539 867,-136.525 867,-171 867,-1155 867,-1155 867,-1155 867,-1176.76 850.807,-1192.39 831.585,-1203.29"/><polygon fill="black" stroke="black" points="829.846,-1200.25 822.588,-1207.97 833.075,-1206.46 829.846,-1200.25"/><text xml:space="preserve" text-anchor="start" x="867" y="-656.5" font-family="Open Sans" font-weight="bold" font-size="10.00"> Faux </text><polyline fill="none" stroke="Black" points="897,-652.5 867,-652.5 "/></g><!-- terminator_block_45 --><g id="node44" class="node"><title>terminator_block_45</title><ellipse fill="url(#g-terminatorcs1lfvnvm6xbt9)" stroke="black" cx="752" cy="-18" rx="65.3959" ry="18"/><text xml:space="preserve" text-anchor="start" x="704" y="-15.5" font-family="Open Sans" font-size="10.00">Conversion en texte</text></g><!-- ifs_block_44&#45;&gt;terminator_block_45 --><g id="edge58" class="edge"><title>ifs_block_44->terminator_block_45</title><path fill="none" stroke="black" d="M752,-81.6412C752,-71.2971 752,-57.941 752,-46.2206"/><polygon fill="black" stroke="black" points="755.5,-46.0501 752,-36.0501 748.5,-46.0501 755.5,-46.0501"/><text xml:space="preserve" text-anchor="start" x="752" y="-57.5" font-family="Open Sans" font-weight="bold" font-size="10.00"> Vrai </text><polyline fill="none" stroke="Black" points="779,-53.5 752,-53.5 "/></g></g></svg>