<?xml version="1.0" encoding="utf-8"?>
<!-- Generator: Adobe Illustrator 19.2.0, SVG Export Plug-In . SVG Version: 6.00 Build 0)  -->
<svg version="1.1" id="Calque_1" xmlns="http://www.w3.org/2000/svg" xmlns:xlink="http://www.w3.org/1999/xlink" x="0px" y="0px"
	 viewBox="0 0 1920 360" style="enable-background:new 0 0 1920 360;" xml:space="preserve">
<style type="text/css">
	.st0{fill:none;}
	.st1{fill:none;stroke:#000000;stroke-width:6;stroke-miterlimit:10;}
	.st2{fill:#FFFFFF;}
	.st3{fill:#263238;}
	.st4{fill:#00FF00;}
	.st5{font-family:'Consolas';}
	.st6{font-size:40px;}
	.st7{font-size:20px;}
	.st8{font-family:'FootlightMTLight';}
	.st9{font-size:24px;}
</style>
<g>
	<line class="st0" x1="335" y1="186.7" x2="509" y2="186.7"/>
	<g>
		<line class="st1" x1="335" y1="186.7" x2="412" y2="186.7"/>
		<g>
			<g>
				<path d="M409.3,211.1c3.1-0.1,7.6-0.2,14.2,0.1c3.1,0.1,3.8-1.1,4.8-6.5c0.4-2.3,2.2-1.1,4.8-1.8c2.3-0.9,2.7-6.4,2.7-6.4
					c0-1.2,0.7-1.3,1.1-1.1c9,3.8,18.5-2,18.7-1c1.7,4.5,6.2,4.2,6.8,3c-0.1,2,3,3.7,4,3.3c3.5-1.8,3.5-3.2,5.9-4
					c4.4-1.9,3.5-4,7.7-4.2c3.1-0.2,4.1-0.7,4.8-1.3c3.2-3.1,0.4-7.3-1.5-8.7c0.7-3.3-4-7.2-5.1-9.9c1.4,0,3.7-0.4,7-1.5
					c1.8-0.6,1.4,0.3,4.5,0c4.2-0.4,5.8-0.8,7.1-1.4c0.8-0.4,4.8-0.3,6.9-1c6.7-1,5.6-7,5.5-7.6c-0.1-0.2-0.1-0.2-1.4-0.2
					c-1.7,0.1-4.7-0.8-7.2-0.4c-1,0.1-2.5-0.3-4.8,0c-2.9-0.5-5.1,0.3-8.5-0.9c-0.5-0.2-0.4,0.3-1.5,0.2c-0.6-0.1-0.5-0.5-2.3-0.3
					c-2,0.2-4.6,0-7.1,0s-4.4-0.5-10.4-1c-2.5-0.2-4.4-1.3-6.2-0.4c-2.7,1.4-12.3,5.5-22.5,10.6c-0.2,0.1-1.1,0.6-1.7-0.7
					c-1.1-2.1-1.8-1.5-5.8-1.4c-2.9-0.1-0.7-2.3-3.9-2.3c-4.9,0.1-6.9,0.5-14,0.4c-2.9-0.1-3.8-0.2-3.8,1.9V210
					C408,210.4,408.4,211.1,409.3,211.1z"/>
				<path class="st2" d="M507.8,162.2c0.2,1.9-3.4,1.4-4.8,1.2c-0.8-0.2-1.5-1.5-0.6-1.8l5.2,0.5
					C507.7,162.1,507.8,162.2,507.8,162.2z"/>
				<path class="st2" d="M479.6,184.6c-2.1,0.3-1.9,1.2-3,1c-1.5-0.2-0.2-0.8-5.1-0.6c-1.4,0-2.2-0.1-3.2,0.5
					c-0.5-0.4-1.6-0.9-2.4-0.2c-1.8-0.4-1.2-0.6-4.2,0.1c-4.1,0.9-4.9-0.7-6.8-1.7c-0.5-0.2-0.8-0.4-1.8-0.3
					c-7.6,0.9-4.3,0.9-14.8,0.3c-3.6-0.7-5.1-2.7-4.9-7.6c0.3-5.6,1.5-4.8,4.6-6.1c12.5-5.5,20.8-10.3,24.1-10.1
					c9.2,0.1,7.5,1.8,19.7,1.4c3.9-0.5,3.7,1.5,5.2,1.3c1.1-0.6,0.2-1.2,3.9-0.8c7.6,0.7,9.1-0.6,9.8,0.6c0.9,1.6,0.9,2.6,5.8,2.2
					c0.4,0,0.5,0,0.8-0.1c0.6-0.1,0.6,0.2,0,0.7c-0.5,0.4-4.5,2.3-9.2,1.6c-2.7-0.4-1.3,0.6-5.7,0.6c-1.9-0.1-3.1-0.1-3.7-0.3
					c-1.9,0.7-5.7,0.8-6.9,0.5c-1.5-0.4-2.2-0.8-3.5-0.1s-4.2,1.7-8.6,1.2c-5.1-0.6-4.8-1.6-5.3-1.2c-1.2,0.9,1.2,2.5-1.3,4.5
					c-1.3,1-2.7-2.9-3.9-2.9c-0.8,0.1-0.9,0.8-0.5,1.6c0.2,0.4,1.7,2.6,0.4,3.6c-2.1,1.5-5.7-3-8.6-1.1c-0.7,0.5,0,1.2,0.8,1.1
					c1.4-0.2,3.7,1.2,4.6,2c1.3,1.1,4.9,2.9,6.2,3.4c4.7,1.9,6.3,0.5,7.1,1.7c0.7,0.9,2.2-0.5,3.9-0.7c3.2-0.5,10.4,2.1,9.7,3.7
					c-0.3,0.5-0.8,0.5-1.4,0.4C480.7,184.5,480.5,184.4,479.6,184.6z"/>
				<path class="st2" d="M477.8,188.5c0.7-1.6,0.8-1.8,2.3-2.1c1.3-0.3,5.2,0.8,4.7,2.5c-0.4,0.5-2,0.5-3,0.8
					C480.7,189.9,477.3,190.3,477.8,188.5z"/>
				<path class="st2" d="M430.4,201.2c1.5-0.1,1.7-1,2-2c0.3-1.4-0.7-7.5-0.8-15.1c-0.1-7.6,0.1-9.8,0.5-13.9c0.1-1,0.9-2.3-0.5-2.3
					c-4.5-0.3-5.9-0.6-6.6,2.9c-0.8,4.2-1,20.3,0.1,28.8C425.4,200.4,424.5,201.7,430.4,201.2z"/>
			</g>
		</g>
	</g>
</g>
<path class="st3" d="M762.4,255.6H536.1c-6.6,0-12-5.4-12-12V84.8c0-6.6,5.4-12,12-12h226.3c6.6,0,12,5.4,12,12v158.9
	C774.4,250.2,769,255.6,762.4,255.6z"/>
<g>
	<line class="st0" x1="805.8" y1="186.7" x2="976.8" y2="186.7"/>
	<g>
		<line class="st1" x1="805.8" y1="186.7" x2="878.8" y2="186.7"/>
		<g>
			<g>
				<path d="M876.9,211.1c3.1-0.1,7.5-0.2,14.1,0.1c3.1,0.1,3.8-1.1,4.8-6.5c0.4-2.3,2.2-1.1,4.7-1.8c2.3-0.9,2.7-6.4,2.7-6.4
					c0-1.2,0.7-1.3,1.1-1.1c9,3.8,18.5-2,18.7-1c1.7,4.5,6.2,4.2,6.7,3c-0.1,2,3,3.7,4,3.3c3.5-1.8,3.5-3.2,5.9-4
					c4.4-1.9,3.5-4,7.7-4.2c3.1-0.2,4.1-0.7,4.8-1.3c3.2-3.1,0.4-7.3-1.5-8.7c0.7-3.3-4-7.2-5.1-9.9c1.4,0,3.7-0.4,7-1.5
					c1.8-0.6,1.4,0.3,4.5,0c4.2-0.4,5.8-0.8,7.1-1.4c0.8-0.4,4.8-0.3,6.9-1c6.7-1,5.6-7,5.5-7.6c-0.1-0.2-0.1-0.2-1.4-0.2
					c-1.7,0.1-4.7-0.8-7.2-0.4c-1,0.1-2.5-0.3-4.8,0c-2.9-0.5-5.1,0.3-8.5-0.9c-0.5-0.2-0.4,0.3-1.5,0.2c-0.6-0.1-0.5-0.5-2.3-0.3
					c-2,0.2-4.6,0-7.1,0s-4.4-0.5-10.4-1c-2.5-0.2-4.4-1.3-6.2-0.4c-2.7,1.4-12.3,5.5-22.5,10.6c-0.2,0.1-1.1,0.6-1.7-0.7
					c-1.1-2.1-1.8-1.5-5.8-1.4c-2.9-0.1-0.7-2.3-3.9-2.3c-4.9,0.1-6.7,0.5-13.8,0.4c-2.9-0.1-3.6-0.2-3.6,1.9V210
					C875.8,210.4,876,211.1,876.9,211.1z"/>
				<path class="st2" d="M975.2,162.2c0.2,1.9-3.4,1.4-4.8,1.2c-0.8-0.2-1.5-1.5-0.6-1.8l5.2,0.5
					C975.1,162.1,975.2,162.2,975.2,162.2z"/>
				<path class="st2" d="M947,184.6c-2.1,0.3-1.9,1.2-3,1c-1.5-0.2-0.2-0.8-5.1-0.6c-1.4,0-2.2-0.1-3.2,0.5
					c-0.5-0.4-1.6-0.9-2.4-0.2c-1.8-0.4-1.2-0.6-4.2,0.1c-4.1,0.9-4.9-0.7-6.8-1.7c-0.5-0.2-0.8-0.4-1.8-0.3
					c-7.6,0.9-4.3,0.9-14.8,0.3c-3.6-0.7-5.1-2.7-4.9-7.6c0.3-5.6,1.5-4.8,4.6-6.1c12.5-5.5,20.8-10.3,24.1-10.1
					c9.2,0.1,7.5,1.8,19.7,1.4c3.9-0.5,3.7,1.5,5.2,1.3c1.1-0.6,0.2-1.2,3.9-0.8c7.6,0.7,9.1-0.6,9.8,0.6c0.9,1.6,0.9,2.6,5.8,2.2
					c0.4,0,0.5,0,0.8-0.1c0.6-0.1,0.6,0.2,0,0.7c-0.5,0.4-4.5,2.3-9.2,1.6c-2.7-0.4-1.3,0.6-5.7,0.6c-1.9-0.1-3.1-0.1-3.7-0.3
					c-1.9,0.7-5.7,0.8-6.9,0.5c-1.5-0.4-2.2-0.8-3.5-0.1s-4.2,1.7-8.6,1.2c-5.1-0.6-4.8-1.6-5.3-1.2c-1.2,0.9,1.2,2.5-1.3,4.5
					c-1.3,1-2.7-2.9-3.9-2.9c-0.8,0.1-0.9,0.8-0.5,1.6c0.2,0.4,1.7,2.6,0.4,3.6c-2.1,1.5-5.7-3-8.6-1.1c-0.7,0.5,0,1.2,0.8,1.1
					c1.4-0.2,3.7,1.2,4.6,2c1.3,1.1,4.9,2.9,6.2,3.4c4.7,1.9,6.3,0.5,7.1,1.7c0.7,0.9,2.2-0.5,3.9-0.7c3.2-0.5,10.4,2.1,9.7,3.7
					c-0.3,0.5-0.8,0.5-1.4,0.4C948.1,184.5,947.9,184.4,947,184.6z"/>
				<path class="st2" d="M945.2,188.5c0.7-1.6,0.8-1.8,2.3-2.1c1.3-0.3,5.2,0.8,4.7,2.5c-0.4,0.5-2,0.5-3,0.8
					C948.1,189.9,944.7,190.3,945.2,188.5z"/>
				<path class="st2" d="M897.8,201.2c1.5-0.1,1.7-1,2-2c0.3-1.4-0.7-7.5-0.8-15.1s0.1-9.8,0.5-13.9c0.1-1,0.9-2.3-0.5-2.3
					c-4.5-0.3-5.9-0.6-6.6,2.9c-0.8,4.2-1,20.3,0.1,28.8C892.8,200.4,891.9,201.7,897.8,201.2z"/>
			</g>
		</g>
	</g>
</g>
<rect x="545.7" y="136.4" class="st0" width="207.1" height="49.3"/>
<text transform="matrix(1 0 0 1 561.3011 163.9565)" class="st4 st5 st6">01100001</text>
<path class="st3" d="M1236.9,255.6h-226.3c-6.6,0-12-5.4-12-12V84.8c0-6.6,5.4-12,12-12h226.3c6.6,0,12,5.4,12,12v158.9
	C1248.9,250.2,1243.5,255.6,1236.9,255.6z"/>
<path class="st3" d="M308.3,255.6H82c-6.6,0-12-5.4-12-12V84.8c0-6.6,5.4-12,12-12h226.3c6.6,0,12,5.4,12,12v158.9
	C320.3,250.2,314.9,255.6,308.3,255.6z"/>
<rect x="119.7" y="135.5" class="st0" width="155.7" height="51.4"/>
<text transform="matrix(1 0 0 1 186.5752 163.0993)" class="st4 st5 st6">a</text>
<rect x="1023.1" y="108.9" class="st0" width="211.4" height="104.3"/>
<text transform="matrix(1 0 0 1 1029.8594 136.4569)" class="st4 st5 st6">000011100</text>
<text transform="matrix(1 0 0 1 1051.8594 184.4569)" class="st4 st5 st6">1101001</text>
<g>
	<line class="st0" x1="1294.6" y1="186.7" x2="1463.6" y2="186.7"/>
	<g>
		<line class="st1" x1="1294.6" y1="186.7" x2="1365.6" y2="186.7"/>
		<g>
			<g>
				<path d="M1363.7,211.1c3.1-0.1,7.5-0.2,14.1,0.1c3.1,0.1,3.8-1.1,4.8-6.5c0.4-2.3,2.2-1.1,4.7-1.8c2.3-0.9,2.7-6.4,2.7-6.4
					c0-1.2,0.7-1.3,1.1-1.1c9,3.8,18.5-2,18.7-1c1.7,4.5,6.2,4.2,6.7,3c-0.1,2,3,3.7,4,3.3c3.5-1.8,3.5-3.2,5.9-4
					c4.4-1.9,3.5-4,7.7-4.2c3.1-0.2,4.1-0.7,4.8-1.3c3.2-3.1,0.4-7.3-1.5-8.7c0.7-3.3-4-7.2-5.1-9.9c1.4,0,3.7-0.4,7-1.5
					c1.8-0.6,1.4,0.3,4.5,0c4.2-0.4,5.8-0.8,7.1-1.4c0.8-0.4,4.8-0.3,6.9-1c6.7-1,5.6-7,5.5-7.6c-0.1-0.2-0.1-0.2-1.4-0.2
					c-1.7,0.1-4.7-0.8-7.2-0.4c-1,0.1-2.5-0.3-4.8,0c-2.9-0.5-5.1,0.3-8.5-0.9c-0.5-0.2-0.4,0.3-1.5,0.2c-0.6-0.1-0.5-0.5-2.3-0.3
					c-2,0.2-4.6,0-7.1,0s-4.4-0.5-10.4-1c-2.5-0.2-4.4-1.3-6.2-0.4c-2.7,1.4-12.3,5.5-22.5,10.6c-0.2,0.1-1.1,0.6-1.7-0.7
					c-1.1-2.1-1.8-1.5-5.8-1.4c-2.9-0.1-0.7-2.3-3.9-2.3c-4.9,0.1-6.7,0.5-13.8,0.4c-2.9-0.1-3.6-0.2-3.6,1.9V210
					C1362.6,210.4,1362.8,211.1,1363.7,211.1z"/>
				<path class="st2" d="M1462,162.2c0.2,1.9-3.4,1.4-4.8,1.2c-0.8-0.2-1.5-1.5-0.6-1.8l5.2,0.5C1461.9,162.1,1462,162.2,1462,162.2
					z"/>
				<path class="st2" d="M1433.8,184.6c-2.1,0.3-1.9,1.2-3,1c-1.5-0.2-0.2-0.8-5.1-0.6c-1.4,0-2.2-0.1-3.2,0.5
					c-0.5-0.4-1.6-0.9-2.4-0.2c-1.8-0.4-1.2-0.6-4.2,0.1c-4.1,0.9-4.9-0.7-6.8-1.7c-0.5-0.2-0.8-0.4-1.8-0.3
					c-7.6,0.9-4.3,0.9-14.8,0.3c-3.6-0.7-5.1-2.7-4.9-7.6c0.3-5.6,1.5-4.8,4.6-6.1c12.5-5.5,20.8-10.3,24.1-10.1
					c9.2,0.1,7.5,1.8,19.7,1.4c3.9-0.5,3.7,1.5,5.2,1.3c1.1-0.6,0.2-1.2,3.9-0.8c7.6,0.7,9.1-0.6,9.8,0.6c0.9,1.6,0.9,2.6,5.8,2.2
					c0.4,0,0.5,0,0.8-0.1c0.6-0.1,0.6,0.2,0,0.7c-0.5,0.4-4.5,2.3-9.2,1.6c-2.7-0.4-1.3,0.6-5.7,0.6c-1.9-0.1-3.1-0.1-3.7-0.3
					c-1.9,0.7-5.7,0.8-6.9,0.5c-1.5-0.4-2.2-0.8-3.5-0.1s-4.2,1.7-8.6,1.2c-5.1-0.6-4.8-1.6-5.3-1.2c-1.2,0.9,1.2,2.5-1.3,4.5
					c-1.3,1-2.7-2.9-3.9-2.9c-0.8,0.1-0.9,0.8-0.5,1.6c0.2,0.4,1.7,2.6,0.4,3.6c-2.1,1.5-5.7-3-8.6-1.1c-0.7,0.5,0,1.2,0.8,1.1
					c1.4-0.2,3.7,1.2,4.6,2c1.3,1.1,4.9,2.9,6.2,3.4c4.7,1.9,6.3,0.5,7.1,1.7c0.7,0.9,2.2-0.5,3.9-0.7c3.2-0.5,10.4,2.1,9.7,3.7
					c-0.3,0.5-0.8,0.5-1.4,0.4C1434.9,184.5,1434.7,184.4,1433.8,184.6z"/>
				<path class="st2" d="M1432,188.5c0.7-1.6,0.8-1.8,2.3-2.1c1.3-0.3,5.2,0.8,4.7,2.5c-0.4,0.5-2,0.5-3,0.8
					C1434.9,189.9,1431.5,190.3,1432,188.5z"/>
				<path class="st2" d="M1384.6,201.2c1.5-0.1,1.7-1,2-2c0.3-1.4-0.7-7.5-0.8-15.1c-0.1-7.6,0.1-9.8,0.5-13.9
					c0.1-1,0.9-2.3-0.5-2.3c-4.5-0.3-5.9-0.6-6.6,2.9c-0.8,4.2-1,20.3,0.1,28.8C1379.6,200.4,1378.7,201.7,1384.6,201.2z"/>
			</g>
		</g>
	</g>
</g>
<path class="st3" d="M1768.8,252.4h-226.3c-6.6,0-12-5.4-12-12V81.6c0-6.6,5.4-12,12-12h226.3c6.6,0,12,5.4,12,12v158.9
	C1780.8,247,1775.4,252.4,1768.8,252.4z"/>
<rect x="1552" y="137.8" class="st0" width="207.1" height="52.9"/>
<text transform="matrix(1 0 0 1 1567.6512 165.3497)" class="st4 st5 st6">AACGTGGT</text>
<rect x="344.4" y="81" class="st0" width="155.7" height="55.7"/>
<text transform="matrix(1 0 0 1 350.7773 123.5)" class="st5 st7">Conversion en </text>
<text transform="matrix(1 0 0 1 383.7773 147.5)" class="st5 st7">binaire</text>
<rect x="789.1" y="81.7" class="st0" width="194.1" height="54.3"/>
<text transform="matrix(1 0 0 1 798.3998 123.5)" class="st5 st7">Ajout de Système </text>
<text transform="matrix(1 0 0 1 831.3998 147.5)" class="st5 st7">Correcteur </text>
<rect x="1285.6" y="81.7" class="st0" width="225.7" height="54.3"/>
<text transform="matrix(1 0 0 1 1341.1448 124.4001)" class="st5 st7">Conversion </text>
<text transform="matrix(1 0 0 1 1319.1448 148.4001)" class="st5 st7">en nucléotides</text>
<rect x="70" y="37.4" class="st0" width="250.3" height="35.8"/>
<text transform="matrix(1 0 0 1 136.0199 53.9112)" class="st8 st9">Information </text>
<rect x="524.1" y="37.4" class="st0" width="250.3" height="35.8"/>
<text transform="matrix(1 0 0 1 614.0132 53.9112)" class="st8 st9">Binaire</text>
<rect x="940.4" y="37.4" class="st0" width="381.2" height="32.2"/>
<text transform="matrix(1 0 0 1 948.6971 55.3003)" class="st8 st9">Binaire + Redondance Correctrice</text>
<rect x="1530.5" y="33.8" class="st0" width="250.3" height="35.8"/>
<text transform="matrix(1 0 0 1 1577.6517 50.2866)" class="st8 st9">Séquence ADN </text>
</svg>
