<?xml version="1.0" encoding="UTF-8" standalone="no"?><!DOCTYPE svg PUBLIC "-//W3C//DTD SVG 1.1//EN" "http://www.w3.org/Graphics/SVG/1.1/DTD/svg11.dtd"><!-- Generated by graphviz version 2.35.0 (20140103.1005) --><!-- Title: FlowChart Pages: 1 --><svg width="320pt" height="847pt" viewBox="0.00 0.00 320 847" xmlns="http://www.w3.org/2000/svg" xmlns:xlink="http://www.w3.org/1999/xlink"><defs><linearGradient id="g-terminatorjovnwoxp5sif6r" x1="0%" x2="100%" y1="0%" y2="0%" spreadMethod="pad"><stop offset="0%" stop-color="#ff8787" stop-opacity="1"/><stop offset="100%" stop-color="#ffb9b9" stop-opacity="1"/></linearGradient><linearGradient id="g-decisionjovnwoxp5sif6r" x1="0%" x2="100%" y1="0%" y2="0%" spreadMethod="pad"><stop offset="0%" stop-color="#ffd287" stop-opacity="1"/><stop offset="100%" stop-color="#ffffb9" stop-opacity="1"/></linearGradient><linearGradient id="g-processjovnwoxp5sif6r" x1="0%" x2="100%" y1="0%" y2="0%" spreadMethod="pad"><stop offset="0%" stop-color="#99ff99" stop-opacity="1"/><stop offset="100%" stop-color="#cbffcb" stop-opacity="1"/></linearGradient><linearGradient id="g-defaultjovnwoxp5sif6r" x1="0%" x2="100%" y1="0%" y2="0%" spreadMethod="pad"><stop offset="0%" stop-color="#99ff99" stop-opacity="1"/><stop offset="100%" stop-color="#cbffcb" stop-opacity="1"/></linearGradient><linearGradient id="g-modulejovnwoxp5sif6r" x1="0%" x2="100%" y1="0%" y2="0%" spreadMethod="pad"><stop offset="0%" stop-color="#77c1e4" stop-opacity="1"/><stop offset="100%" stop-color="#a9f3ff" stop-opacity="1"/></linearGradient><linearGradient id="g-dataiojovnwoxp5sif6r" x1="0%" x2="100%" y1="0%" y2="0%" spreadMethod="pad"><stop offset="0%" stop-color="#bebebe" stop-opacity="1"/><stop offset="100%" stop-color="#f0f0f0" stop-opacity="1"/></linearGradient><linearGradient id="g-preparationjovnwoxp5sif6r" x1="0%" x2="100%" y1="0%" y2="0%" spreadMethod="pad"><stop offset="0%" stop-color="#bebebe" stop-opacity="1"/><stop offset="100%" stop-color="#f0f0f0" stop-opacity="1"/></linearGradient><linearGradient id="g-commentjovnwoxp5sif6r" x1="0%" x2="100%" y1="0%" y2="0%" spreadMethod="pad"><stop offset="0%" stop-color="#f5f588" stop-opacity="1"/><stop offset="100%" stop-color="#ffffba" stop-opacity="1"/></linearGradient><linearGradient id="g-manualjovnwoxp5sif6r" x1="0%" x2="100%" y1="0%" y2="0%" spreadMethod="pad"><stop offset="0%" stop-color="#9e78ff" stop-opacity="1"/><stop offset="100%" stop-color="#d0aaff" stop-opacity="1"/></linearGradient><filter id="dropshadowjovnwoxp5sif6r" height="150%" width="150%"><feGaussianBlur in="SourceAlpha" stdDeviation="3"/><feOffset dx="2" dy="2" result="offsetblur"/><feComponentTransfer/><feMerge><feMergeNode/><feMergeNode in="SourceGraphic"/></feMerge></filter></defs><g id="flowjovnwoxp5sif6r" class="graph" transform="scale(0.751786 0.751786) rotate(0) translate(4 1116)"><title>FlowChart</title><!-- dataio_block_1 --><g id="node1" class="node"><title>dataio_block_1</title><polygon fill="url(#g-dataiojovnwoxp5sif6r)" stroke="black" points="180.213,-1112 63.7473,-1112 33.7867,-1076 150.253,-1076 180.213,-1112"/><text xml:space="preserve" text-anchor="start" x="59.5" y="-1091.5" font-family="Open Sans" font-size="10.00"> Séquence de texte </text></g><!-- process_block_2 --><g id="node2" class="node"><title>process_block_2</title><polygon fill="url(#g-processjovnwoxp5sif6r)" stroke="black" points="204.25,-1038 9.75,-1038 9.75,-1002 204.25,-1002 204.25,-1038"/><text xml:space="preserve" text-anchor="start" x="16.5" y="-1017.5" font-family="Open Sans" font-size="10.00">Conversion de la séquence en binaire</text></g><!-- dataio_block_1&#45;&gt;process_block_2 --><g id="edge1" class="edge"><title>dataio_block_1->process_block_2</title><path fill="none" stroke="black" d="M107,-1075.94C107,-1067.81 107,-1057.88 107,-1048.7"/><polygon fill="black" stroke="black" points="110.5,-1048.44 107,-1038.44 103.5,-1048.44 110.5,-1048.44"/></g><!-- process_block_3 --><g id="node3" class="node"><title>process_block_3</title><polygon fill="url(#g-processjovnwoxp5sif6r)" stroke="black" points="318.5,-964 161.5,-964 161.5,-928 318.5,-928 318.5,-964"/><text xml:space="preserve" text-anchor="start" x="168" y="-943.5" font-family="Open Sans" font-size="10.00">Grouper cette séquence par 8</text></g><!-- process_block_2&#45;&gt;process_block_3 --><g id="edge2" class="edge"><title>process_block_2->process_block_3</title><path fill="none" stroke="black" d="M138.519,-1001.94C156.689,-992.101 179.73,-979.627 199.263,-969.053"/><polygon fill="black" stroke="black" points="201.118,-972.029 208.246,-964.19 197.786,-965.873 201.118,-972.029"/></g><!-- switch_block_5 --><g id="node5" class="node"><title>switch_block_5</title><polygon fill="url(#g-decisionjovnwoxp5sif6r)" stroke="black" points="240,-890 146.641,-872 240,-854 333.359,-872 240,-890"/><text xml:space="preserve" text-anchor="start" x="192" y="-869.5" font-family="Open Sans" font-size="10.00">Pour chaque groupe</text></g><!-- process_block_3&#45;&gt;switch_block_5 --><g id="edge3" class="edge"><title>process_block_3->switch_block_5</title><path fill="none" stroke="black" d="M240,-927.937C240,-919.807 240,-909.876 240,-900.705"/><polygon fill="black" stroke="black" points="243.5,-900.441 240,-890.441 236.5,-900.441 243.5,-900.441"/></g><!-- comment_block_4 --><g id="node4" class="node"><title>comment_block_4</title><polygon fill="url(#g-commentjovnwoxp5sif6r)" stroke="black" points="352.25,-1038 233.75,-1038 233.75,-1002 358.25,-1002 358.25,-1032 352.25,-1038"/><polyline fill="none" stroke="black" points="352.25,-1038 352.25,-1032 "/><polyline fill="none" stroke="black" points="358.25,-1032 352.25,-1032 "/><text xml:space="preserve" text-anchor="start" x="261.5" y="-1021" font-family="Open Sans" font-size="8.00">Cette séquence est</text><text xml:space="preserve" text-anchor="start" x="237.5" y="-1012" font-family="Open Sans" font-size="8.00">D1-D2-D3-D4-D'1-D'2-D'3-D'4</text></g><!-- comment_block_4&#45;&gt;process_block_3 --><g id="edge27" class="edge"><title>comment_block_4->process_block_3</title><path fill="none" stroke="black" stroke-dasharray="5,2" d="M282.729,-1001.94C274.962,-991.951 265.082,-979.249 256.779,-968.574"/><polyline fill="none" stroke="black" points="253.565,-964.441 256.635,-968.387 "/></g><!-- process_block_6 --><g id="node6" class="node"><title>process_block_6</title><polygon fill="url(#g-processjovnwoxp5sif6r)" stroke="black" points="140,-806 0,-806 0,-770 140,-770 140,-806"/><text xml:space="preserve" text-anchor="start" x="7" y="-785.5" font-family="Open Sans" font-size="10.00">P1 = D'1 + D'2 + D'3 mod 2</text></g><!-- switch_block_5&#45;&gt;process_block_6 --><g id="edge4" class="edge"><title>switch_block_5->process_block_6</title><path fill="none" stroke="black" d="M214.549,-858.724C188.162,-845.996 146.389,-825.846 114.52,-810.474"/><polygon fill="black" stroke="black" points="115.923,-807.265 105.396,-806.073 112.882,-813.57 115.923,-807.265"/><text xml:space="preserve" text-anchor="start" x="166" y="-828.5" font-family="Open Sans" font-weight="bold" font-size="10.00"> Pas Prime </text><polyline fill="none" stroke="Black" points="222,-824.5 143.197,-824.5 "/></g><!-- process_block_10 --><g id="node10" class="node"><title>process_block_10</title><polygon fill="url(#g-processjovnwoxp5sif6r)" stroke="black" points="311,-806 169,-806 169,-770 311,-770 311,-806"/><text xml:space="preserve" text-anchor="start" x="176" y="-785.5" font-family="Open Sans" font-size="10.00">P'1 = D'1 + D'2 + D'3 mod 2</text></g><!-- switch_block_5&#45;&gt;process_block_10 --><g id="edge8" class="edge"><title>switch_block_5->process_block_10</title><path fill="none" stroke="black" d="M240,-853.61C240,-842.774 240,-828.601 240,-816.291"/><polygon fill="black" stroke="black" points="243.5,-816.084 240,-806.084 236.5,-816.084 243.5,-816.084"/><text xml:space="preserve" text-anchor="start" x="240" y="-828.5" font-family="Open Sans" font-weight="bold" font-size="10.00"> Prime </text><polyline fill="none" stroke="Black" points="276,-824.5 240,-824.5 "/></g><!-- process_block_7 --><g id="node7" class="node"><title>process_block_7</title><polygon fill="url(#g-processjovnwoxp5sif6r)" stroke="black" points="140,-732 0,-732 0,-696 140,-696 140,-732"/><text xml:space="preserve" text-anchor="start" x="7" y="-711.5" font-family="Open Sans" font-size="10.00">P2 = D'1 + D'2 + D'4 mod 2</text></g><!-- process_block_6&#45;&gt;process_block_7 --><g id="edge5" class="edge"><title>process_block_6->process_block_7</title><path fill="none" stroke="black" d="M70,-769.937C70,-761.807 70,-751.876 70,-742.705"/><polygon fill="black" stroke="black" points="73.5001,-742.441 70,-732.441 66.5001,-742.441 73.5001,-742.441"/></g><!-- process_block_8 --><g id="node8" class="node"><title>process_block_8</title><polygon fill="url(#g-processjovnwoxp5sif6r)" stroke="black" points="140,-648 0,-648 0,-612 140,-612 140,-648"/><text xml:space="preserve" text-anchor="start" x="7" y="-627.5" font-family="Open Sans" font-size="10.00">P3 = D'2 + D'3 + D'4 mod 2</text></g><!-- process_block_7&#45;&gt;process_block_8 --><g id="edge6" class="edge"><title>process_block_7->process_block_8</title><path fill="none" stroke="black" d="M70,-695.61C70,-684.774 70,-670.601 70,-658.291"/><polygon fill="black" stroke="black" points="73.5001,-658.084 70,-648.084 66.5001,-658.084 73.5001,-658.084"/></g><!-- process_block_9 --><g id="node9" class="node"><title>process_block_9</title><polygon fill="url(#g-processjovnwoxp5sif6r)" stroke="black" points="140.25,-574 3.75,-574 3.75,-538 140.25,-538 140.25,-574"/><text xml:space="preserve" text-anchor="start" x="10.5" y="-553.5" font-family="Open Sans" font-size="10.00">P4 = P'1 + P'2 + P'3 mod 2</text></g><!-- process_block_8&#45;&gt;process_block_9 --><g id="edge7" class="edge"><title>process_block_8->process_block_9</title><path fill="none" stroke="black" d="M70.474,-611.937C70.6998,-603.807 70.9757,-593.876 71.2304,-584.705"/><polygon fill="black" stroke="black" points="74.7364,-584.534 71.5155,-574.441 67.7391,-584.34 74.7364,-584.534"/></g><!-- ifs_block_14 --><g id="node14" class="node"><title>ifs_block_14</title><polygon fill="url(#g-decisionjovnwoxp5sif6r)" stroke="black" points="240,-500 149.387,-482 240,-464 330.613,-482 240,-500"/><text xml:space="preserve" text-anchor="start" x="193.5" y="-479.5" font-family="Open Sans" font-size="10.00">Itération terminée?</text></g><!-- process_block_9&#45;&gt;ifs_block_14 --><g id="edge12" class="edge"><title>process_block_9->ifs_block_14</title><path fill="none" stroke="black" d="M111.814,-537.937C139.554,-526.048 176.282,-510.308 203.312,-498.724"/><polygon fill="black" stroke="black" points="204.984,-501.815 212.796,-494.659 202.226,-495.381 204.984,-501.815"/></g><!-- process_block_11 --><g id="node11" class="node"><title>process_block_11</title><polygon fill="url(#g-processjovnwoxp5sif6r)" stroke="black" points="311,-732 169,-732 169,-696 311,-696 311,-732"/><text xml:space="preserve" text-anchor="start" x="176" y="-711.5" font-family="Open Sans" font-size="10.00">P'2 = D'1 + D'2 + D'4 mod 2</text></g><!-- process_block_10&#45;&gt;process_block_11 --><g id="edge9" class="edge"><title>process_block_10->process_block_11</title><path fill="none" stroke="black" d="M240,-769.937C240,-761.807 240,-751.876 240,-742.705"/><polygon fill="black" stroke="black" points="243.5,-742.441 240,-732.441 236.5,-742.441 243.5,-742.441"/></g><!-- process_block_12 --><g id="node12" class="node"><title>process_block_12</title><polygon fill="url(#g-processjovnwoxp5sif6r)" stroke="black" points="311,-648 169,-648 169,-612 311,-612 311,-648"/><text xml:space="preserve" text-anchor="start" x="176" y="-627.5" font-family="Open Sans" font-size="10.00">P'3 = D'2 + D'3 + D'4 mod 2</text></g><!-- process_block_11&#45;&gt;process_block_12 --><g id="edge10" class="edge"><title>process_block_11->process_block_12</title><path fill="none" stroke="black" d="M240,-695.61C240,-684.774 240,-670.601 240,-658.291"/><polygon fill="black" stroke="black" points="243.5,-658.084 240,-648.084 236.5,-658.084 243.5,-658.084"/></g><!-- process_block_13 --><g id="node13" class="node"><title>process_block_13</title><polygon fill="url(#g-processjovnwoxp5sif6r)" stroke="black" points="309.25,-574 170.75,-574 170.75,-538 309.25,-538 309.25,-574"/><text xml:space="preserve" text-anchor="start" x="177.5" y="-553.5" font-family="Open Sans" font-size="10.00">P'4 = P'1 + P'2 + P'3 mod 2</text></g><!-- process_block_12&#45;&gt;process_block_13 --><g id="edge11" class="edge"><title>process_block_12->process_block_13</title><path fill="none" stroke="black" d="M240,-611.937C240,-603.807 240,-593.876 240,-584.705"/><polygon fill="black" stroke="black" points="243.5,-584.441 240,-574.441 236.5,-584.441 243.5,-584.441"/></g><!-- process_block_13&#45;&gt;ifs_block_14 --><g id="edge13" class="edge"><title>process_block_13->ifs_block_14</title><path fill="none" stroke="black" d="M240,-537.937C240,-529.807 240,-519.876 240,-510.705"/><polygon fill="black" stroke="black" points="243.5,-510.441 240,-500.441 236.5,-510.441 243.5,-510.441"/></g><!-- ifs_block_14&#45;&gt;switch_block_5 --><g id="edge15" class="edge"><title>ifs_block_14->switch_block_5</title><path fill="none" stroke="black" d="M282.822,-491.637C315.518,-501.02 355,-519.667 355,-555 355,-789 355,-789 355,-789 355,-824.111 319.023,-845.598 287.314,-857.718"/><polygon fill="black" stroke="black" points="285.886,-854.512 277.655,-861.183 288.25,-861.101 285.886,-854.512"/><text xml:space="preserve" text-anchor="start" x="355" y="-670.5" font-family="Open Sans" font-weight="bold" font-size="10.00"> Faux </text><polyline fill="none" stroke="Black" points="385,-666.5 355,-666.5 "/></g><!-- process_block_15 --><g id="node15" class="node"><title>process_block_15</title><polygon fill="url(#g-processjovnwoxp5sif6r)" stroke="black" points="411,-416 69,-416 69,-380 411,-380 411,-416"/><text xml:space="preserve" text-anchor="start" x="76" y="-395.5" font-family="Open Sans" font-size="10.00">Regrouper en P1-P'1-D1-D'1-P2-P'2-D2-D'2-P3-P'3-D3-D'3-P4-P'4-D4-D'4</text></g><!-- ifs_block_14&#45;&gt;process_block_15 --><g id="edge14" class="edge"><title>ifs_block_14->process_block_15</title><path fill="none" stroke="black" d="M240,-463.61C240,-452.774 240,-438.601 240,-426.291"/><polygon fill="black" stroke="black" points="243.5,-426.084 240,-416.084 236.5,-426.084 243.5,-426.084"/><text xml:space="preserve" text-anchor="start" x="240" y="-438.5" font-family="Open Sans" font-weight="bold" font-size="10.00"> Vrai </text><polyline fill="none" stroke="Black" points="267,-434.5 240,-434.5 "/></g><!-- process_block_16 --><g id="node16" class="node"><title>process_block_16</title><polygon fill="url(#g-processjovnwoxp5sif6r)" stroke="black" points="295,-342 185,-342 185,-306 295,-306 295,-342"/><text xml:space="preserve" text-anchor="start" x="208.5" y="-327" font-family="Open Sans" font-size="10.00">Grouper en 2</text><text xml:space="preserve" text-anchor="start" x="192" y="-316" font-family="Open Sans" font-size="10.00">Pour chaque groupe</text></g><!-- process_block_15&#45;&gt;process_block_16 --><g id="edge16" class="edge"><title>process_block_15->process_block_16</title><path fill="none" stroke="black" d="M240,-379.937C240,-371.807 240,-361.876 240,-352.705"/><polygon fill="black" stroke="black" points="243.5,-352.441 240,-342.441 236.5,-352.441 243.5,-352.441"/></g><!-- switch_block_17 --><g id="node17" class="node"><title>switch_block_17</title><polygon fill="url(#g-decisionjovnwoxp5sif6r)" stroke="black" points="240,-268 137.904,-250 240,-232 342.096,-250 240,-268"/><text xml:space="preserve" text-anchor="start" x="186.5" y="-247.5" font-family="Open Sans" font-size="10.00">Quelle type de groupe</text></g><!-- process_block_16&#45;&gt;switch_block_17 --><g id="edge17" class="edge"><title>process_block_16->switch_block_17</title><path fill="none" stroke="black" d="M240,-305.937C240,-297.807 240,-287.876 240,-278.705"/><polygon fill="black" stroke="black" points="243.5,-278.441 240,-268.441 236.5,-278.441 243.5,-278.441"/></g><!-- process_block_18 --><g id="node18" class="node"><title>process_block_18</title><polygon fill="url(#g-processjovnwoxp5sif6r)" stroke="black" points="143,-184 89,-184 89,-148 143,-148 143,-184"/><text xml:space="preserve" text-anchor="start" x="98" y="-163.5" font-family="Open Sans" font-size="10.00">00 en A</text></g><!-- switch_block_17&#45;&gt;process_block_18 --><g id="edge18" class="edge"><title>switch_block_17->process_block_18</title><path fill="none" stroke="black" d="M219.524,-235.459C200.82,-223.091 172.785,-204.551 150.605,-189.884"/><polygon fill="black" stroke="black" points="152.389,-186.868 142.117,-184.271 148.528,-192.706 152.389,-186.868"/><text xml:space="preserve" text-anchor="start" x="186" y="-206.5" font-family="Open Sans" font-weight="bold" font-size="10.00"> 00 </text><polyline fill="none" stroke="Black" points="204,-202.5 170.371,-202.5 "/></g><!-- process_block_19 --><g id="node19" class="node"><title>process_block_19</title><polygon fill="url(#g-processjovnwoxp5sif6r)" stroke="black" points="226,-184 172,-184 172,-148 226,-148 226,-184"/><text xml:space="preserve" text-anchor="start" x="181" y="-163.5" font-family="Open Sans" font-size="10.00">01 en T</text></g><!-- switch_block_17&#45;&gt;process_block_19 --><g id="edge19" class="edge"><title>switch_block_17->process_block_19</title><path fill="none" stroke="black" d="M230.704,-233.5C227.213,-227.484 223.294,-220.49 220,-214 216.684,-207.468 213.339,-200.3 210.323,-193.573"/><polygon fill="black" stroke="black" points="213.412,-191.903 206.182,-184.159 207.005,-194.722 213.412,-191.903"/><text xml:space="preserve" text-anchor="start" x="220" y="-206.5" font-family="Open Sans" font-weight="bold" font-size="10.00"> 01 </text><polyline fill="none" stroke="Black" points="238,-202.5 214.441,-202.5 "/></g><!-- process_block_20 --><g id="node20" class="node"><title>process_block_20</title><polygon fill="url(#g-processjovnwoxp5sif6r)" stroke="black" points="309,-184 255,-184 255,-148 309,-148 309,-184"/><text xml:space="preserve" text-anchor="start" x="263.5" y="-163.5" font-family="Open Sans" font-size="10.00">10 en G</text></g><!-- switch_block_17&#45;&gt;process_block_20 --><g id="edge20" class="edge"><title>switch_block_17->process_block_20</title><path fill="none" stroke="black" d="M248.098,-233.19C253.891,-221.88 261.822,-206.395 268.557,-193.246"/><polygon fill="black" stroke="black" points="271.758,-194.673 273.202,-184.177 265.528,-191.482 271.758,-194.673"/><text xml:space="preserve" text-anchor="start" x="264" y="-206.5" font-family="Open Sans" font-weight="bold" font-size="10.00"> 10 </text><polyline fill="none" stroke="Black" points="282,-202.5 263.334,-202.5 "/></g><!-- process_block_21 --><g id="node21" class="node"><title>process_block_21</title><polygon fill="url(#g-processjovnwoxp5sif6r)" stroke="black" points="392,-184 338,-184 338,-148 392,-148 392,-184"/><text xml:space="preserve" text-anchor="start" x="347" y="-163.5" font-family="Open Sans" font-size="10.00">11 en C</text></g><!-- switch_block_17&#45;&gt;process_block_21 --><g id="edge21" class="edge"><title>switch_block_17->process_block_21</title><path fill="none" stroke="black" d="M260.641,-235.459C279.496,-223.091 307.757,-204.551 330.116,-189.884"/><polygon fill="black" stroke="black" points="332.23,-192.683 338.672,-184.271 328.391,-186.83 332.23,-192.683"/><text xml:space="preserve" text-anchor="start" x="310" y="-206.5" font-family="Open Sans" font-weight="bold" font-size="10.00"> 11 </text><polyline fill="none" stroke="Black" points="328,-202.5 310.191,-202.5 "/></g><!-- process_block_22 --><g id="node22" class="node"><title>process_block_22</title><polygon fill="url(#g-processjovnwoxp5sif6r)" stroke="black" points="321.25,-110 158.75,-110 158.75,-74 321.25,-74 321.25,-110"/><text xml:space="preserve" text-anchor="start" x="165.5" y="-89.5" font-family="Open Sans" font-size="10.00">Regrouper tous les nucléotides</text></g><!-- process_block_18&#45;&gt;process_block_22 --><g id="edge22" class="edge"><title>process_block_18->process_block_22</title><path fill="none" stroke="black" d="M143.212,-149.199C160.445,-139.193 182.979,-126.109 201.967,-115.083"/><polygon fill="black" stroke="black" points="203.797,-118.068 210.687,-110.02 200.282,-112.015 203.797,-118.068"/></g><!-- process_block_19&#45;&gt;process_block_22 --><g id="edge23" class="edge"><title>process_block_19->process_block_22</title><path fill="none" stroke="black" d="M208.716,-147.937C213.598,-139.365 219.619,-128.791 225.071,-119.217"/><polygon fill="black" stroke="black" points="228.162,-120.862 230.069,-110.441 222.079,-117.399 228.162,-120.862"/></g><!-- process_block_20&#45;&gt;process_block_22 --><g id="edge24" class="edge"><title>process_block_20->process_block_22</title><path fill="none" stroke="black" d="M272.047,-147.937C267.046,-139.365 260.878,-128.791 255.293,-119.217"/><polygon fill="black" stroke="black" points="258.236,-117.315 250.174,-110.441 252.189,-120.842 258.236,-117.315"/></g><!-- process_block_21&#45;&gt;process_block_22 --><g id="edge25" class="edge"><title>process_block_21->process_block_22</title><path fill="none" stroke="black" d="M337.877,-149.377C320.521,-139.38 297.737,-126.257 278.519,-115.187"/><polygon fill="black" stroke="black" points="280.105,-112.061 269.693,-110.103 276.611,-118.127 280.105,-112.061"/></g><!-- terminator_block_23 --><g id="node23" class="node"><title>terminator_block_23</title><ellipse fill="url(#g-terminatorjovnwoxp5sif6r)" stroke="black" cx="240" cy="-18" rx="55.0025" ry="18"/><text xml:space="preserve" text-anchor="start" x="201" y="-15.5" font-family="Open Sans" font-size="10.00">Séquence d'ADN</text></g><!-- process_block_22&#45;&gt;terminator_block_23 --><g id="edge26" class="edge"><title>process_block_22->terminator_block_23</title><path fill="none" stroke="black" d="M240,-73.937C240,-65.8072 240,-55.8761 240,-46.7047"/><polygon fill="black" stroke="black" points="243.5,-46.4406 240,-36.4407 236.5,-46.4407 243.5,-46.4406"/></g></g></svg>