<?xml version="1.0" encoding="utf-8"?>
<!-- Generator: Adobe Illustrator 19.2.0, SVG Export Plug-In . SVG Version: 6.00 Build 0)  -->
<svg version="1.1" id="Calque_1" xmlns="http://www.w3.org/2000/svg" xmlns:xlink="http://www.w3.org/1999/xlink" x="0px" y="0px"
	 viewBox="0 0 2551.2 1700.8" style="enable-background:new 0 0 2551.2 1700.8;" xml:space="preserve">
<style type="text/css">
	.st0{fill:#00FF00;}
	.st1{font-family:'Consolas';}
	.st2{font-size:250px;}
	.st3{fill:none;}
	.st4{font-size:100px;}
	.st5{fill:none;stroke:#000000;stroke-width:5;stroke-miterlimit:10;}
	.st6{fill:#E62A38;}
	.st7{font-size:150px;}
	.st8{fill:#FFFFFF;stroke:#000000;stroke-width:9;stroke-miterlimit:10;}
	.st9{font-size:200px;}
</style>
<text transform="matrix(1 0 0 1 228.8049 883.1462)" class="st0 st1 st2">0 1 1 0 0 0 0 1</text>
<rect x="2156.9" y="996.6" class="st3" width="139" height="109.8"/>
<text transform="matrix(1 0 0 1 2198.8748 1065.5601)" class="st1 st4">1</text>
<rect x="1894.7" y="996.6" class="st3" width="139" height="109.8"/>
<text transform="matrix(1 0 0 1 1936.6796 1065.5601)" class="st1 st4">2</text>
<rect x="1603.1" y="996.6" class="st3" width="139" height="109.8"/>
<text transform="matrix(1 0 0 1 1645.1368 1065.5601)" class="st1 st4">4</text>
<rect x="1332.3" y="996.6" class="st3" width="139" height="109.8"/>
<text transform="matrix(1 0 0 1 1374.3259 1065.5601)" class="st1 st4">8</text>
<rect x="1051.7" y="996.6" class="st3" width="139" height="109.8"/>
<text transform="matrix(1 0 0 1 1066.1893 1065.5601)" class="st1 st4">16</text>
<rect x="770" y="996.6" class="st3" width="139" height="109.8"/>
<text transform="matrix(1 0 0 1 784.4821 1065.5601)" class="st1 st4">32</text>
<rect x="509.9" y="996.6" class="st3" width="139" height="109.8"/>
<text transform="matrix(1 0 0 1 524.4088 1065.5601)" class="st1 st4">64</text>
<rect x="219" y="996.6" class="st3" width="139" height="109.8"/>
<rect x="126.4" y="996.6" class="st3" width="324.4" height="122"/>
<text transform="matrix(1 0 0 1 206.09 1065.5605)" class="st1 st4">128</text>
<rect x="2158.1" y="506.3" class="st3" width="146.3" height="163.4"/>
<text transform="matrix(1 0 0 1 2187.7275 575.3154)" class="st1 st4">2</text>
<text transform="matrix(0.583 0 0 0.583 2242.708 542.0156)" class="st1 st4">0</text>
<rect x="1891" y="506.3" class="st3" width="146.3" height="163.4"/>
<text transform="matrix(1 0 0 1 1920.6543 575.3154)" class="st1 st4">2</text>
<text transform="matrix(0.583 0 0 0.583 1975.6348 542.0156)" class="st1 st4">1</text>
<rect x="1599.5" y="506.3" class="st3" width="146.3" height="163.4"/>
<text transform="matrix(1 0 0 1 1629.1116 575.3154)" class="st1 st4">2</text>
<text transform="matrix(0.583 0 0 0.583 1684.092 542.0156)" class="st1 st4">2</text>
<rect x="1328.6" y="506.3" class="st3" width="146.3" height="163.4"/>
<text transform="matrix(1 0 0 1 1358.3008 575.3154)" class="st1 st4">2</text>
<text transform="matrix(0.583 0 0 0.583 1413.2812 542.0156)" class="st1 st4">3</text>
<rect x="1048" y="506.3" class="st3" width="146.3" height="163.4"/>
<text transform="matrix(1 0 0 1 1077.6543 575.3154)" class="st1 st4">2</text>
<text transform="matrix(0.583 0 0 0.583 1132.6348 542.0156)" class="st1 st4">4</text>
<rect x="783.6" y="506.3" class="st3" width="146.3" height="163.4"/>
<text transform="matrix(1 0 0 1 813.2886 575.3154)" class="st1 st4">2</text>
<text transform="matrix(0.583 0 0 0.583 868.269 542.0156)" class="st1 st4">5</text>
<rect x="506.2" y="506.3" class="st3" width="146.3" height="163.4"/>
<text transform="matrix(1 0 0 1 535.8739 575.3154)" class="st1 st4">2</text>
<text transform="matrix(0.583 0 0 0.583 590.8544 542.0156)" class="st1 st4">6</text>
<rect x="228.8" y="506.3" class="st3" width="146.3" height="163.4"/>
<text transform="matrix(1 0 0 1 258.4592 575.3154)" class="st1 st4">2</text>
<text transform="matrix(0.583 0 0 0.583 313.4397 542.0156)" class="st1 st4">7</text>
<path class="st3" d="M2231.2,1183.9c0,65.7-57.9,118.8-129.5,118.8"/>
<path class="st3" d="M2231.2,1140.1c0,89.9-57.9,162.6-129.5,162.6"/>
<g>
	<g>
		<path class="st5" d="M2013.2,1178.7c20.9,37.8,64.2,102.6,115.8,102.6c73,0,101.7-129.3,101.7-129.3"/>
		<g>
			<polygon points="2003.3,1199.5 2016.2,1184.1 2036.2,1182.7 1999.8,1152 			"/>
		</g>
	</g>
</g>
<g>
	<g>
		<path class="st5" d="M1730.7,1178.7c20.9,37.8,64.2,102.6,115.8,102.6c73,0,101.7-129.3,101.7-129.3"/>
		<g>
			<polygon points="1720.8,1199.5 1733.7,1184.1 1753.8,1182.7 1717.3,1152 			"/>
		</g>
	</g>
</g>
<g>
	<g>
		<path class="st5" d="M1425.5,1178.7c20.9,37.8,64.2,102.6,115.8,102.6c73,0,101.7-129.3,101.7-129.3"/>
		<g>
			<polygon points="1415.5,1199.5 1428.4,1184.1 1448.5,1182.7 1412,1152 			"/>
		</g>
	</g>
</g>
<g>
	<g>
		<path class="st5" d="M1151,1178.7c20.9,37.8,64.2,102.6,115.8,102.6c73,0,101.7-129.3,101.7-129.3"/>
		<g>
			<polygon points="1141.1,1199.5 1154,1184.1 1174.1,1182.7 1137.6,1152 			"/>
		</g>
	</g>
</g>
<g>
	<g>
		<path class="st5" d="M858.5,1178.7c20.9,37.8,64.2,102.6,115.8,102.6c73,0,101.7-129.3,101.7-129.3"/>
		<g>
			<polygon points="848.6,1199.5 861.5,1184.1 881.6,1182.7 845.1,1152 			"/>
		</g>
	</g>
</g>
<g>
	<g>
		<path class="st5" d="M592.8,1178.7c20.9,37.8,64.2,102.6,115.8,102.6c73,0,101.7-129.3,101.7-129.3"/>
		<g>
			<polygon points="582.9,1199.5 595.8,1184.1 615.9,1182.7 579.4,1152 			"/>
		</g>
	</g>
</g>
<g>
	<g>
		<path class="st5" d="M256,1178.7c20.9,37.8,64.2,102.6,115.8,102.6c73,0,101.7-129.3,101.7-129.3"/>
		<g>
			<polygon points="246.1,1199.5 259,1184.1 279,1182.7 242.6,1152 			"/>
		</g>
	</g>
</g>
<rect x="1866.2" y="1305.9" class="st3" width="196" height="168.9"/>
<text transform="matrix(0.583 0 0 0.583 1916.0906 1359.4025)" class="st6 st1 st7">x2</text>
<rect x="1603.1" y="1305.9" class="st3" width="196" height="168.9"/>
<text transform="matrix(0.583 0 0 0.583 1653.0339 1359.4025)" class="st6 st1 st7">x2</text>
<rect x="1294.8" y="1305.9" class="st3" width="196" height="168.9"/>
<text transform="matrix(0.583 0 0 0.583 1344.6962 1359.4025)" class="st6 st1 st7">x2</text>
<rect x="998.3" y="1305.9" class="st3" width="196" height="168.9"/>
<text transform="matrix(0.583 0 0 0.583 1048.2631 1359.4025)" class="st6 st1 st7">x2</text>
<rect x="734" y="1305.9" class="st3" width="196" height="168.9"/>
<text transform="matrix(0.583 0 0 0.583 783.8972 1359.4025)" class="st6 st1 st7">x2</text>
<rect x="423.2" y="1305.9" class="st3" width="196" height="168.9"/>
<text transform="matrix(0.583 0 0 0.583 473.1375 1359.4025)" class="st6 st1 st7">x2</text>
<rect x="188.8" y="155.9" class="st8" width="2173.6" height="183.1"/>
<text transform="matrix(0.583 0 0 0.583 589.5988 272.4438)" class="st1 st9">Séquence de huit bits </text>
</svg>
